<svg width="107" height="108" viewBox="0 0 107 108" fill="none" xmlns="http://www.w3.org/2000/svg">
<g clip-path="url(#clip0_2661_3606)">
<path d="M105.853 57.5273L99.6292 47.7108L103.321 36.694C103.567 35.9655 103.552 35.1742 103.279 34.4554C103.006 33.7365 102.492 33.1347 101.825 32.7527L91.7548 26.9472L89.903 15.4756C89.7784 14.7171 89.3962 14.0247 88.8209 13.5151C88.2455 13.0054 87.5121 12.7095 86.7442 12.6773L75.1291 12.2225L68.1601 2.92233C67.7002 2.30625 67.0407 1.86895 66.2942 1.68513C65.5477 1.50131 64.7606 1.58237 64.0672 1.91447L53.5748 6.90462L43.0782 1.91037C42.3837 1.58264 41.5974 1.50434 40.8519 1.68867C40.1063 1.873 39.4471 2.30869 38.9853 2.92233L32.0163 12.2225L20.4013 12.6773C19.6333 12.7057 18.8989 12.9998 18.3235 13.5094C17.7482 14.019 17.3675 14.7125 17.2466 15.4715L15.3948 26.9431L5.32431 32.7486C4.65634 33.1299 4.14158 33.7315 3.86807 34.4504C3.59455 35.1693 3.57926 35.9609 3.82481 36.6899L7.51621 47.7067L1.29695 57.5273C0.886694 58.1773 0.71358 58.9491 0.806901 59.7121C0.900221 60.4751 1.25425 61.1824 1.80908 61.7144L10.1957 69.7568L9.25334 81.335C9.19066 82.1011 9.39457 82.8654 9.83056 83.4985C10.2666 84.1316 10.9079 84.5946 11.646 84.8092L22.8103 88.0254L27.3539 98.7227C27.6522 99.4317 28.1875 100.015 28.8683 100.373C29.5491 100.731 30.3331 100.841 31.0863 100.685L42.476 98.3499L51.4648 105.712C52.0753 106.208 52.825 106.466 53.5748 106.466C54.3245 106.466 55.0702 106.208 55.6847 105.712L64.6736 98.3499L76.0633 100.685C77.6078 101.013 79.177 100.181 79.7956 98.7227L84.3392 88.0254L95.5036 84.8092C96.2433 84.5974 96.8865 84.135 97.323 83.5012C97.7594 82.8674 97.9621 82.1017 97.8962 81.335L96.9539 69.7568L105.34 61.7144C105.895 61.1824 106.249 60.4751 106.343 59.7121C106.436 58.9491 106.263 58.1773 105.853 57.5273ZM77.6529 41.5039L54.3368 76.435C53.456 77.7378 52.0917 78.6105 50.7356 78.6105C49.3794 78.6105 47.8717 77.8525 46.9089 76.8856L29.7916 59.4938C29.2286 58.9194 28.9133 58.1472 28.9133 57.3429C28.9133 56.5386 29.2286 55.7664 29.7916 55.192L34.0157 50.8901C34.2925 50.6118 34.6215 50.3909 34.984 50.2402C35.3464 50.0894 35.7351 50.0118 36.1277 50.0118C36.5202 50.0118 36.9089 50.0894 37.2713 50.2402C37.6338 50.3909 37.9629 50.6118 38.2397 50.8901L49.3794 62.206L67.7504 34.6823C67.9682 34.3541 68.2491 34.0726 68.5768 33.8541C68.9046 33.6356 69.2725 33.4846 69.6593 33.4098C70.046 33.3351 70.4437 33.3381 70.8293 33.4187C71.2148 33.4993 71.5804 33.6559 71.9048 33.8793L76.8581 37.2839C78.2224 38.2263 78.5747 40.1232 77.6529 41.5039Z" fill="#FA9D3E"/>
</g>
<defs>
<clipPath id="clip0_2661_3606">
<rect width="106.522" height="106.522" fill="white" transform="translate(0.313477 0.73877)"/>
</clipPath>
</defs>
</svg>
