<svg width="84" height="81" viewBox="0 0 84 81" fill="none" xmlns="http://www.w3.org/2000/svg">
<path fill-rule="evenodd" clip-rule="evenodd" d="M81.7749 2.29587C82.9466 3.46791 83.6049 5.05734 83.6049 6.71462C83.6049 8.37189 82.9466 9.96132 81.7749 11.1334L34.9291 57.9792C34.31 58.5984 33.575 59.0896 32.7661 59.4247C31.9572 59.7599 31.0901 59.9324 30.2145 59.9324C29.3389 59.9324 28.4719 59.7599 27.663 59.4247C26.854 59.0896 26.119 58.5984 25.4999 57.9792L2.22495 34.7084C1.62801 34.1318 1.15187 33.4422 0.824312 32.6796C0.496756 31.9171 0.324342 31.097 0.317131 30.2671C0.309919 29.4372 0.468055 28.6143 0.782311 27.8462C1.09657 27.078 1.56065 26.3802 2.14748 25.7934C2.73431 25.2066 3.43213 24.7425 4.20023 24.4282C4.96833 24.114 5.79133 23.9558 6.6212 23.963C7.45107 23.9703 8.2712 24.1427 9.03372 24.4702C9.79625 24.7978 10.4859 25.2739 11.0624 25.8709L30.2124 45.0209L72.9333 2.29587C73.5137 1.71508 74.2029 1.25435 74.9614 0.940003C75.72 0.625661 76.533 0.463867 77.3541 0.463867C78.1752 0.463867 78.9883 0.625661 79.7468 0.940003C80.5054 1.25435 81.1945 1.71508 81.7749 2.29587Z" fill="#F86F00"/>
</svg>
