<svg width="16" height="16" viewBox="0 0 16 16" fill="none" xmlns="http://www.w3.org/2000/svg">
<g clip-path="url(#clip0_2464_1279)">
<path d="M8.00005 0.5C4.72505 0.5 1.95005 2.6 0.925049 5.5H15.075C14.05 2.6 11.275 0.5 8.00005 0.5Z" fill="#ED4C5C"/>
<path d="M8.00005 15.5C11.275 15.5 14.05 13.425 15.075 10.5H0.925049C1.95005 13.425 4.72505 15.5 8.00005 15.5Z" fill="#428BC1"/>
<path d="M0.925 5.5C0.65 6.275 0.5 7.125 0.5 8C0.5 8.875 0.65 9.725 0.925 10.5H15.075C15.35 9.725 15.5 8.875 15.5 8C15.5 7.125 15.35 6.275 15.075 5.5H0.925Z" fill="#F9F9F9"/>
<path d="M10.725 6.3L11.375 4.8L10.875 4L10.05 4.3L9.475 3.625L8.7 4.075L8 3.5L7.3 4.075L6.525 3.625L5.95 4.3L5.125 4L4.625 4.825L5.275 6.325C6.1 5.95 7.025 5.75 8 5.75C8.975 5.7 9.9 5.925 10.725 6.3Z" fill="white"/>
<path d="M8.67495 4.12495L7.99995 3.57495L7.32495 4.12495L7.44995 5.67495C7.62495 5.64995 7.82495 5.64995 7.99995 5.64995C8.17495 5.64995 8.37495 5.64995 8.54995 5.67495L8.67495 4.12495Z" fill="#428BC1"/>
<path d="M8.00005 12.5C9.55005 12.5 10.825 11.225 10.825 9.67495V6.32495H5.17505V9.67495C5.17505 11.225 6.45005 12.5 8.00005 12.5Z" fill="#ED4C5C"/>
<path d="M8.0001 12.45C9.5251 12.45 10.7751 11.2 10.7751 9.675V6.375H5.2251V9.675C5.2251 11.2 6.4751 12.45 8.0001 12.45Z" fill="white"/>
<path d="M6.39995 6.4751H5.32495V7.6501H6.39995V6.4751ZM6.39995 8.8251H7.47495V7.6501H6.39995V8.8251ZM5.32495 9.6751C5.32495 9.7751 5.32495 9.8751 5.34995 10.0001H6.39995V8.8251H5.32495V9.6751ZM8.52495 8.8251H7.44995V10.0001H8.52495V8.8251ZM8.52495 11.1751H9.59995V10.0001H8.52495V11.1751ZM9.59995 11.8001C9.82495 11.6251 10.05 11.4001 10.2 11.1501H9.59995V11.8001ZM6.39995 11.1751H7.47495V10.0001H6.39995V11.1751ZM5.79995 11.1751C5.97495 11.4251 6.17495 11.6251 6.39995 11.8251V11.1751H5.79995Z" fill="#ED4C5C"/>
<path d="M8.17495 12.3251C8.29995 12.3251 8.39995 12.3001 8.52495 12.2751V11.1501H7.44995V12.2751C7.57495 12.3001 7.67495 12.3251 7.79995 12.3251C7.92495 12.3501 8.04995 12.3501 8.17495 12.3251ZM10.65 10.0001C10.65 9.9001 10.675 9.8001 10.675 9.6751V8.8251H9.59995V10.0001H10.65ZM8.52495 8.8251H9.59995V7.6501H8.52495V8.8251ZM8.52495 6.4751H7.44995V7.6501H8.52495V6.4751Z" fill="#ED4C5C"/>
<path d="M10.65 7.6501V6.4751H9.57495V7.6501H10.65Z" fill="#ED4C5C"/>
<path d="M5.97505 4.35005L5.15005 4.05005L4.67505 4.80005L4.85005 5.20005L5.30005 6.22505C5.62505 6.07505 5.97505 5.95005 6.35005 5.87505L5.97505 4.35005Z" fill="#428BC1"/>
<path d="M5.92505 5.1001C5.95005 5.1501 5.97505 5.2251 5.97505 5.3001C5.97505 5.5251 5.80005 5.7001 5.57505 5.7001C5.37505 5.7001 5.22505 5.5501 5.17505 5.3751C5.25005 5.5001 5.37505 5.5751 5.52505 5.5751C5.75005 5.5751 5.92505 5.4001 5.92505 5.1751V5.1001Z" fill="white"/>
<path d="M5.55 4.5501L5.525 4.7001L5.65 4.7751V4.8001H5.625L5.5 4.8501L5.475 4.9751V5.0001L5.45 4.9751L5.35 4.9001L5.2 4.9501V4.9251L5.225 4.8001L5.125 4.7001V4.6751L5.275 4.6251L5.3 4.5001L5.4 4.5751L5.55 4.5501Z" fill="#FFE62E"/>
<path d="M7.3251 4.12495L6.5501 3.69995L5.9751 4.34995L6.3501 5.84995C6.7001 5.74995 7.0751 5.69995 7.4501 5.67495L7.3251 4.12495Z" fill="#2A5F9E"/>
<path d="M6.2501 5.475C6.6251 5.375 7.0001 5.325 7.4001 5.275L7.3751 4.875C6.9501 4.9 6.5501 4.975 6.1501 5.075L6.2501 5.475ZM6.0751 4.725C6.5001 4.625 6.9251 4.55 7.3501 4.5L7.3251 4.125C6.8751 4.175 6.4251 4.25 5.9751 4.35L6.0751 4.725Z" fill="#ED4C5C"/>
<path d="M7.99995 4.8251C7.94995 4.8251 7.87495 5.0001 7.77495 4.8751C7.77495 4.8751 7.84995 4.9751 7.84995 5.0251L7.77495 5.0001C7.77495 5.5251 8.24995 5.5001 8.24995 5.0001L8.17495 5.0251C8.17495 5.0001 8.24995 4.8751 8.24995 4.8751C8.12495 5.0001 8.07495 4.8501 7.99995 4.8251ZM8.29995 4.1001C8.24995 4.1001 8.17495 4.2751 8.07495 4.1501C8.07495 4.1501 8.14995 4.2501 8.14995 4.3001L8.07495 4.2751C8.07495 4.8001 8.54995 4.7751 8.54995 4.2751L8.47495 4.3001C8.47495 4.2751 8.54995 4.1501 8.54995 4.1501C8.44995 4.2751 8.37495 4.1001 8.29995 4.1001ZM7.67495 4.1001C7.62495 4.1001 7.54995 4.2751 7.44995 4.1501C7.44995 4.1501 7.52495 4.2501 7.52495 4.3001L7.44995 4.2751C7.44995 4.8001 7.92495 4.7751 7.92495 4.2751L7.84995 4.3001C7.84995 4.2751 7.92495 4.1501 7.92495 4.1501C7.82495 4.2751 7.74995 4.1001 7.67495 4.1001Z" fill="#FFE62E"/>
<path d="M10.025 4.35005L9.45005 3.67505L8.67505 4.12505L8.55005 5.67505C8.92505 5.70005 9.30005 5.77505 9.65005 5.85005L10.025 4.35005Z" fill="#2A5F9E"/>
<path d="M8.82497 4.4499H8.89997C8.94997 4.4749 8.94997 4.4499 8.97497 4.4249C9.02497 4.3999 9.17497 4.3749 9.32497 4.4499C9.34997 4.4749 9.49997 4.4749 9.49997 4.4749C9.49997 4.4749 9.37497 4.5249 9.24997 4.4749C9.29997 4.4999 9.32497 4.5499 9.37497 4.5749C9.39997 4.5749 9.57497 4.6249 9.57497 4.6249C9.57497 4.6249 9.42497 4.6999 9.32497 4.6249C9.24997 4.5499 9.17497 4.4749 9.04997 4.4999L9.12497 4.5249C9.09997 4.5499 9.02497 4.5749 8.99997 4.5499C8.99997 4.6249 9.24997 4.8749 9.54997 4.7999C9.67497 4.7499 9.59997 4.8499 9.57497 4.8999C9.54997 4.9249 9.44997 5.4749 9.17497 5.3499C9.17497 5.3499 9.32497 5.2999 9.32497 5.1999L9.27497 5.1499C9.17497 5.1499 9.09997 5.4499 8.97497 5.2999C8.97497 5.2999 9.12497 5.2249 9.09997 5.0999H8.99997C8.92497 5.1249 8.94997 5.3999 8.79997 5.3249C8.79997 5.3249 8.97497 5.0749 8.87497 5.0749C8.84997 5.1249 8.79997 5.1749 8.79997 5.2249C8.84997 5.2749 8.67497 5.2749 8.69997 5.2249C8.69997 5.1999 8.82497 5.0749 8.79997 4.9499C8.74997 4.9249 8.79997 4.6999 8.82497 4.6499C8.67497 4.6499 8.77497 4.5999 8.79997 4.4999C8.84997 4.4999 8.82497 4.4999 8.82497 4.4499Z" fill="#FFE62E"/>
<path d="M10.6999 6.22505L11.3249 4.80005L10.8499 4.05005L10.0249 4.35005L9.6499 5.85005C9.9999 5.95005 10.3499 6.07505 10.6999 6.22505Z" fill="#428BC1"/>
<path d="M9.9 4.8999C10.325 4.9999 10.725 5.1499 11.1 5.3249L10.85 5.8749C10.5 5.7249 10.125 5.5999 9.75 5.4999L9.9 4.8999Z" fill="white"/>
<path d="M10.875 5.775L11.025 5.4C10.65 5.225 10.25 5.1 9.85 5L9.75 5.375C10.15 5.475 10.525 5.6 10.875 5.775Z" fill="#ED4C5C"/>
<path d="M10.5 4.35005L10.525 4.50005L10.425 4.60005L10.575 4.65005L10.6 4.80005L10.725 4.70005L10.875 4.75005L10.85 4.60005L10.95 4.50005L10.8 4.45005L10.775 4.30005L10.675 4.40005L10.5 4.35005Z" fill="#FFE62E"/>
</g>
<defs>
<clipPath id="clip0_2464_1279">
<rect width="16" height="16" fill="white"/>
</clipPath>
</defs>
</svg>
