<svg width="40" height="40" viewBox="0 0 40 40" fill="none" xmlns="http://www.w3.org/2000/svg">
<g clip-path="url(#clip0_238_2136)">
<path fill-rule="evenodd" clip-rule="evenodd" d="M28.6566 2.00323C22.2967 0.629131 15.7014 0.629131 9.34147 2.00323L8.6562 2.14977C6.86723 2.53636 5.22416 3.39473 3.90952 4.62953C2.59487 5.86432 1.66012 7.4272 1.2091 9.14454C-0.403032 15.2846 -0.403032 21.7165 1.2091 27.8565C1.63922 29.4944 2.50972 30.9932 3.73236 32.201C4.955 33.4088 6.48631 34.2827 8.17104 34.7341L9.11103 40.158C9.14103 40.3302 9.21826 40.4915 9.33467 40.6251C9.45108 40.7587 9.60241 40.8596 9.77291 40.9175C9.9434 40.9754 10.1268 40.988 10.3041 40.954C10.4813 40.9201 10.646 40.8409 10.7808 40.7246L16.3014 35.9513C20.4456 36.1958 24.6048 35.8754 28.6566 34.9998L29.3439 34.8533C31.1329 34.4667 32.776 33.6083 34.0906 32.3735C35.4053 31.1387 36.34 29.5758 36.791 27.8585C38.403 21.7185 38.403 15.2865 36.791 9.14649C36.3399 7.4289 35.4048 5.86585 34.0898 4.63104C32.7747 3.39622 31.1312 2.53799 29.3419 2.15172L28.6566 2.00323ZM11.0476 8.98628C10.6719 8.93343 10.2888 9.00652 9.96207 9.19339H9.93377C9.17571 9.62323 8.49246 10.1644 7.91027 10.8014C7.42512 11.3426 7.16233 11.8897 7.0936 12.4172C7.05317 12.7299 7.08147 13.0464 7.17648 13.3453L7.21287 13.3649C7.75866 14.9143 8.47022 16.405 9.33945 17.8079C10.4603 19.7783 11.8395 21.6007 13.443 23.2298L13.4916 23.2963L13.5684 23.351L13.6149 23.4037L13.6715 23.4506C15.3629 25.0052 17.2527 26.3446 19.2952 27.4365C21.63 28.6654 23.047 29.2457 23.8981 29.488V29.4997C24.1467 29.574 24.3731 29.6072 24.6016 29.6072C25.3263 29.5554 26.0124 29.2707 26.5503 28.7983C27.2072 28.2356 27.7631 27.5732 28.1957 26.8366V26.8229C28.6021 26.0805 28.4646 25.381 27.8784 24.9062C26.7008 23.9118 25.4276 23.0285 24.076 22.2685C23.1704 21.7937 22.2506 22.081 21.8786 22.5616L21.0842 23.5307C20.6759 24.0114 19.936 23.9449 19.936 23.9449L19.9158 23.9567C14.3952 22.5948 12.9215 17.1924 12.9215 17.1924C12.9215 17.1924 12.8528 16.4578 13.3642 16.0827L14.3588 15.3089C14.8358 14.9338 15.1674 14.0467 14.6559 13.1714C13.8748 11.8638 12.9628 10.6335 11.933 9.49819C11.7084 9.23099 11.3934 9.04901 11.0436 8.98433L11.0476 8.98628ZM20.3747 6.63776C20.1066 6.63776 19.8495 6.74068 19.66 6.92389C19.4704 7.1071 19.3639 7.35558 19.3639 7.61468C19.3639 7.87378 19.4704 8.12226 19.66 8.30547C19.8495 8.48868 20.1066 8.5916 20.3747 8.5916C22.9318 8.5916 25.0544 9.39854 26.7342 10.946C27.5974 11.792 28.2705 12.7943 28.7112 13.8924C29.1539 14.9924 29.3561 16.1667 29.3035 17.3429C29.2979 17.4712 29.3185 17.5993 29.3642 17.7199C29.4098 17.8404 29.4796 17.9512 29.5695 18.0457C29.7511 18.2366 30.0037 18.35 30.2718 18.3608C30.5399 18.3717 30.8014 18.2792 30.9989 18.1037C31.1964 17.9282 31.3137 17.684 31.325 17.4249C31.3877 15.9781 31.1392 14.5344 30.5952 13.1851C30.0489 11.8294 29.2205 10.5965 28.1614 9.56267L28.1412 9.54313C26.057 7.61859 23.419 6.63776 20.3747 6.63776ZM20.3059 9.84988C20.0379 9.84988 19.7808 9.95281 19.5912 10.136C19.4017 10.3192 19.2952 10.5677 19.2952 10.8268C19.2952 11.0859 19.4017 11.3344 19.5912 11.5176C19.7808 11.7008 20.0379 11.8037 20.3059 11.8037H20.3403C22.1839 11.9307 23.5261 12.5247 24.4661 13.4997C25.4304 14.5039 25.9297 15.7525 25.8913 17.296C25.8851 17.5551 25.9857 17.8059 26.1709 17.9934C26.356 18.1808 26.6107 18.2894 26.8787 18.2954C27.1468 18.3013 27.4063 18.2041 27.6003 18.0251C27.7942 17.8461 27.9066 17.6 27.9127 17.3409C27.9612 15.3148 27.2861 13.5661 25.9479 12.1711V12.1671C24.5793 10.7487 22.7014 9.99837 20.4414 9.85184L20.407 9.84793L20.3059 9.84988ZM20.2675 13.1226C20.1323 13.111 19.996 13.126 19.8668 13.1665C19.7376 13.207 19.6183 13.2722 19.5158 13.3583C19.4133 13.4444 19.3297 13.5495 19.2702 13.6675C19.2107 13.7855 19.1764 13.9138 19.1693 14.0449C19.1623 14.176 19.1826 14.3071 19.2291 14.4304C19.2756 14.5537 19.3474 14.6667 19.4401 14.7626C19.5327 14.8585 19.6445 14.9354 19.7686 14.9886C19.8927 15.0419 20.0266 15.0704 20.1624 15.0725C21.0074 15.1155 21.5471 15.3617 21.8867 15.6919C22.2283 16.024 22.4831 16.5574 22.5296 17.3917C22.5321 17.5228 22.5619 17.6521 22.6172 17.7718C22.6725 17.8916 22.7522 17.9993 22.8515 18.0887C22.9508 18.178 23.0677 18.2471 23.1952 18.2918C23.3227 18.3366 23.4582 18.3561 23.5937 18.3491C23.7292 18.3422 23.8618 18.3089 23.9837 18.2514C24.1056 18.1938 24.2143 18.1131 24.3032 18.0141C24.3922 17.9151 24.4596 17.7998 24.5015 17.6751C24.5434 17.5504 24.5588 17.4188 24.547 17.2882C24.4823 16.1159 24.1023 15.0803 23.324 14.3183C22.5417 13.5563 21.4764 13.1851 20.2675 13.1226Z" fill="#6F3FAA"/>
</g>
<defs>
<clipPath id="clip0_238_2136">
<rect width="40" height="40" fill="white"/>
</clipPath>
</defs>
</svg>
