<svg width="327" height="52" viewBox="0 0 327 52" fill="none" xmlns="http://www.w3.org/2000/svg">
<rect width="327" height="52" rx="2" fill="#15419E"/>
<path d="M105.058 26.1818C105.058 27.4242 104.831 28.4924 104.376 29.3864C103.922 30.2765 103.299 30.9621 102.507 31.4432C101.719 31.9205 100.823 32.1591 99.8196 32.1591C98.812 32.1591 97.9124 31.9205 97.1207 31.4432C96.3329 30.9621 95.7116 30.2746 95.2571 29.3807C94.8026 28.4867 94.5753 27.4205 94.5753 26.1818C94.5753 24.9394 94.8026 23.8731 95.2571 22.983C95.7116 22.089 96.3329 21.4034 97.1207 20.9261C97.9124 20.4451 98.812 20.2045 99.8196 20.2045C100.823 20.2045 101.719 20.4451 102.507 20.9261C103.299 21.4034 103.922 22.089 104.376 22.983C104.831 23.8731 105.058 24.9394 105.058 26.1818ZM103.32 26.1818C103.32 25.2348 103.166 24.4375 102.859 23.7898C102.556 23.1383 102.14 22.6458 101.609 22.3125C101.083 21.9754 100.486 21.8068 99.8196 21.8068C99.1491 21.8068 98.5507 21.9754 98.0241 22.3125C97.4976 22.6458 97.081 23.1383 96.7741 23.7898C96.4711 24.4375 96.3196 25.2348 96.3196 26.1818C96.3196 27.1288 96.4711 27.928 96.7741 28.5795C97.081 29.2273 97.4976 29.7197 98.0241 30.0568C98.5507 30.3902 99.1491 30.5568 99.8196 30.5568C100.486 30.5568 101.083 30.3902 101.609 30.0568C102.14 29.7197 102.556 29.2273 102.859 28.5795C103.166 27.928 103.32 27.1288 103.32 26.1818ZM110.866 34.9716V20.3636H112.565V34.9716H110.866ZM110.866 32.1761C110.249 32.1761 109.687 32.0701 109.179 31.858C108.671 31.642 108.234 31.3352 107.866 30.9375C107.499 30.5398 107.215 30.0644 107.014 29.5114C106.817 28.9583 106.719 28.3466 106.719 27.6761C106.719 26.9981 106.817 26.3826 107.014 25.8295C107.215 25.2765 107.499 24.8011 107.866 24.4034C108.234 24.0057 108.671 23.6989 109.179 23.483C109.687 23.267 110.249 23.1591 110.866 23.1591H111.287V32.1761H110.866ZM110.866 30.7443H111.105V24.5909H110.866C110.457 24.5909 110.101 24.6742 109.798 24.8409C109.495 25.0038 109.243 25.2292 109.043 25.517C108.842 25.8011 108.69 26.1288 108.588 26.5C108.49 26.8712 108.44 27.2633 108.44 27.6761C108.44 28.2292 108.529 28.7386 108.707 29.2045C108.885 29.6667 109.154 30.0398 109.514 30.3239C109.874 30.6042 110.325 30.7443 110.866 30.7443ZM112.565 32.1761H112.139V23.1591H112.565C113.183 23.1591 113.745 23.267 114.253 23.483C114.76 23.6989 115.196 24.0057 115.56 24.4034C115.927 24.8011 116.209 25.2765 116.406 25.8295C116.607 26.3826 116.707 26.9981 116.707 27.6761C116.707 28.3466 116.607 28.9583 116.406 29.5114C116.209 30.0644 115.927 30.5398 115.56 30.9375C115.196 31.3352 114.76 31.642 114.253 31.858C113.745 32.0701 113.183 32.1761 112.565 32.1761ZM112.565 30.7443C112.974 30.7443 113.33 30.6648 113.634 30.5057C113.937 30.3428 114.188 30.1193 114.389 29.8352C114.59 29.5473 114.74 29.2197 114.838 28.8523C114.937 28.4811 114.986 28.089 114.986 27.6761C114.986 27.1269 114.897 26.6193 114.719 26.1534C114.545 25.6837 114.277 25.3068 113.918 25.0227C113.558 24.7348 113.107 24.5909 112.565 24.5909H112.321V30.7443H112.565ZM122.271 32.1761C121.453 32.1761 120.739 31.9886 120.129 31.6136C119.519 31.2386 119.046 30.714 118.709 30.0398C118.372 29.3655 118.203 28.5777 118.203 27.6761C118.203 26.7708 118.372 25.9792 118.709 25.3011C119.046 24.6231 119.519 24.0966 120.129 23.7216C120.739 23.3466 121.453 23.1591 122.271 23.1591C123.089 23.1591 123.804 23.3466 124.413 23.7216C125.023 24.0966 125.497 24.6231 125.834 25.3011C126.171 25.9792 126.339 26.7708 126.339 27.6761C126.339 28.5777 126.171 29.3655 125.834 30.0398C125.497 30.714 125.023 31.2386 124.413 31.6136C123.804 31.9886 123.089 32.1761 122.271 32.1761ZM122.277 30.75C122.807 30.75 123.247 30.6098 123.595 30.3295C123.944 30.0492 124.201 29.6761 124.368 29.2102C124.538 28.7443 124.624 28.2311 124.624 27.6705C124.624 27.1136 124.538 26.6023 124.368 26.1364C124.201 25.6667 123.944 25.2898 123.595 25.0057C123.247 24.7216 122.807 24.5795 122.277 24.5795C121.743 24.5795 121.3 24.7216 120.947 25.0057C120.599 25.2898 120.339 25.6667 120.169 26.1364C120.002 26.6023 119.919 27.1136 119.919 27.6705C119.919 28.2311 120.002 28.7443 120.169 29.2102C120.339 29.6761 120.599 30.0492 120.947 30.3295C121.3 30.6098 121.743 30.75 122.277 30.75ZM128.236 35.2727V23.2727H129.895V24.6875H130.037C130.135 24.5057 130.277 24.2955 130.463 24.0568C130.649 23.8182 130.906 23.6098 131.236 23.4318C131.565 23.25 132.001 23.1591 132.543 23.1591C133.247 23.1591 133.876 23.3371 134.429 23.6932C134.982 24.0492 135.416 24.5625 135.73 25.233C136.048 25.9034 136.207 26.7102 136.207 27.6534C136.207 28.5966 136.05 29.4053 135.736 30.0795C135.421 30.75 134.99 31.267 134.44 31.6307C133.891 31.9905 133.264 32.1705 132.56 32.1705C132.029 32.1705 131.596 32.0814 131.259 31.9034C130.925 31.7254 130.664 31.517 130.474 31.2784C130.285 31.0398 130.139 30.8277 130.037 30.642H129.935V35.2727H128.236ZM129.901 27.6364C129.901 28.25 129.99 28.7879 130.168 29.25C130.346 29.7121 130.603 30.0739 130.94 30.3352C131.277 30.5928 131.69 30.7216 132.179 30.7216C132.687 30.7216 133.111 30.5871 133.452 30.3182C133.793 30.0455 134.05 29.6761 134.224 29.2102C134.402 28.7443 134.491 28.2197 134.491 27.6364C134.491 27.0606 134.404 26.5436 134.23 26.0852C134.06 25.6269 133.802 25.2652 133.457 25C133.116 24.7348 132.69 24.6023 132.179 24.6023C131.687 24.6023 131.27 24.7292 130.929 24.983C130.592 25.2367 130.336 25.5909 130.162 26.0455C129.988 26.5 129.901 27.0303 129.901 27.6364ZM143.009 29.8977L145.827 23.2727H147.293L143.639 32H142.378L138.798 23.2727H140.247L143.009 29.8977ZM139.776 23.2727V32H138.111V23.2727H139.776ZM146.287 32V23.2727H147.94V32H146.287ZM151.869 29.6193L155.716 23.2727H157.545V32H155.881V25.6477L152.051 32H150.205V23.2727H151.869V29.6193ZM158.747 24.7386V23.2727H166.111V24.7386H163.264V32H161.605V24.7386H158.747ZM169.186 26.2727H171.72C172.788 26.2727 173.61 26.5379 174.186 27.0682C174.762 27.5985 175.05 28.2822 175.05 29.1193C175.05 29.6648 174.921 30.1553 174.663 30.5909C174.406 31.0265 174.029 31.3712 173.533 31.625C173.036 31.875 172.432 32 171.72 32H167.908V23.2727H169.572V30.5341H171.72C172.209 30.5341 172.61 30.4072 172.925 30.1534C173.239 29.8958 173.396 29.5682 173.396 29.1705C173.396 28.75 173.239 28.4072 172.925 28.142C172.61 27.8731 172.209 27.7386 171.72 27.7386H169.186V26.2727ZM180.672 29.6932H182.411C182.433 30.0492 182.594 30.3239 182.893 30.517C183.196 30.7102 183.589 30.8068 184.07 30.8068C184.558 30.8068 184.975 30.7027 185.32 30.4943C185.664 30.2822 185.837 29.9545 185.837 29.5114C185.837 29.2462 185.77 29.0152 185.638 28.8182C185.509 28.6174 185.325 28.4621 185.087 28.3523C184.852 28.2424 184.573 28.1875 184.251 28.1875H182.831V26.8523H184.251C184.732 26.8523 185.092 26.7424 185.331 26.5227C185.57 26.303 185.689 26.0284 185.689 25.6989C185.689 25.3428 185.56 25.0568 185.303 24.8409C185.049 24.6212 184.695 24.5114 184.24 24.5114C183.778 24.5114 183.393 24.6155 183.087 24.8239C182.78 25.0284 182.619 25.2936 182.604 25.6193H180.888C180.899 25.1307 181.047 24.7027 181.331 24.3352C181.619 23.964 182.005 23.6761 182.49 23.4716C182.979 23.2633 183.534 23.1591 184.155 23.1591C184.803 23.1591 185.363 23.2633 185.837 23.4716C186.31 23.6799 186.676 23.9678 186.933 24.3352C187.195 24.7027 187.325 25.125 187.325 25.6023C187.325 26.0833 187.181 26.4773 186.893 26.7841C186.609 27.0871 186.238 27.3049 185.78 27.4375V27.5284C186.117 27.5511 186.416 27.6534 186.678 27.8352C186.939 28.017 187.143 28.2576 187.291 28.5568C187.439 28.8561 187.513 29.1951 187.513 29.5739C187.513 30.108 187.365 30.5701 187.07 30.9602C186.778 31.3504 186.373 31.6515 185.854 31.8636C185.339 32.072 184.75 32.1761 184.087 32.1761C183.443 32.1761 182.865 32.0758 182.354 31.875C181.846 31.6705 181.443 31.3826 181.143 31.0114C180.848 30.6402 180.691 30.2008 180.672 29.6932ZM191.807 32.1932C191.254 32.1932 190.754 32.0909 190.307 31.8864C189.86 31.678 189.506 31.3769 189.244 30.983C188.987 30.589 188.858 30.1061 188.858 29.5341C188.858 29.0417 188.953 28.6364 189.142 28.3182C189.331 28 189.587 27.7481 189.909 27.5625C190.231 27.3769 190.591 27.2367 190.989 27.142C191.386 27.0473 191.792 26.9754 192.205 26.9261C192.727 26.8655 193.152 26.8163 193.477 26.7784C193.803 26.7367 194.04 26.6705 194.188 26.5795C194.335 26.4886 194.409 26.3409 194.409 26.1364V26.0966C194.409 25.6004 194.269 25.2159 193.989 24.9432C193.712 24.6705 193.299 24.5341 192.75 24.5341C192.178 24.5341 191.727 24.661 191.398 24.9148C191.072 25.1648 190.847 25.4432 190.722 25.75L189.125 25.3864C189.314 24.8561 189.591 24.428 189.955 24.1023C190.322 23.7727 190.744 23.5341 191.222 23.3864C191.699 23.2348 192.201 23.1591 192.727 23.1591C193.076 23.1591 193.445 23.2008 193.835 23.2841C194.229 23.3636 194.597 23.5114 194.938 23.7273C195.282 23.9432 195.564 24.2519 195.784 24.6534C196.004 25.0511 196.114 25.5682 196.114 26.2045V32H194.455V30.8068H194.386C194.277 31.0265 194.112 31.2424 193.892 31.4545C193.672 31.6667 193.39 31.8428 193.045 31.983C192.701 32.1231 192.288 32.1932 191.807 32.1932ZM192.176 30.8295C192.646 30.8295 193.047 30.7367 193.381 30.5511C193.718 30.3655 193.973 30.1231 194.148 29.8239C194.326 29.5208 194.415 29.197 194.415 28.8523V27.7273C194.354 27.7879 194.237 27.8447 194.062 27.8977C193.892 27.947 193.697 27.9905 193.477 28.0284C193.258 28.0625 193.044 28.0947 192.835 28.125C192.627 28.1515 192.453 28.1742 192.312 28.1932C191.983 28.2348 191.682 28.3049 191.409 28.4034C191.14 28.5019 190.924 28.6439 190.761 28.8295C190.602 29.0114 190.523 29.2538 190.523 29.5568C190.523 29.9773 190.678 30.2955 190.989 30.5114C191.299 30.7235 191.695 30.8295 192.176 30.8295ZM203.581 32V24.7216H201.49C200.994 24.7216 200.607 24.8371 200.331 25.0682C200.054 25.2992 199.916 25.6023 199.916 25.9773C199.916 26.3485 200.043 26.6477 200.297 26.875C200.554 27.0985 200.914 27.2102 201.376 27.2102H204.075V28.5852H201.376C200.732 28.5852 200.176 28.4792 199.706 28.267C199.24 28.0511 198.88 27.7462 198.626 27.3523C198.376 26.9583 198.251 26.4924 198.251 25.9545C198.251 25.4053 198.38 24.9318 198.638 24.5341C198.899 24.1326 199.272 23.822 199.757 23.6023C200.246 23.3826 200.823 23.2727 201.49 23.2727H205.178V32H203.581ZM197.854 32L200.314 27.5909H202.053L199.592 32H197.854ZM207.439 32V23.2727H211.058C212.043 23.2727 212.823 23.483 213.399 23.9034C213.975 24.3201 214.263 24.8864 214.263 25.6023C214.263 26.1136 214.1 26.5189 213.774 26.8182C213.448 27.1174 213.017 27.3182 212.479 27.4205C212.869 27.4659 213.227 27.5833 213.553 27.7727C213.878 27.9583 214.14 28.2083 214.337 28.5227C214.537 28.8371 214.638 29.2121 214.638 29.6477C214.638 30.1098 214.518 30.5189 214.28 30.875C214.041 31.2273 213.695 31.5038 213.24 31.7045C212.789 31.9015 212.246 32 211.609 32H207.439ZM209.036 30.5795H211.609C212.03 30.5795 212.359 30.4792 212.598 30.2784C212.837 30.0777 212.956 29.8049 212.956 29.4602C212.956 29.0549 212.837 28.7367 212.598 28.5057C212.359 28.2708 212.03 28.1534 211.609 28.1534H209.036V30.5795ZM209.036 26.9091H211.075C211.393 26.9091 211.666 26.8636 211.893 26.7727C212.125 26.6818 212.301 26.553 212.422 26.3864C212.547 26.2159 212.609 26.0152 212.609 25.7841C212.609 25.447 212.471 25.1837 212.195 24.9943C211.918 24.8049 211.539 24.7102 211.058 24.7102H209.036V26.9091ZM216.501 32V23.2727H218.2V26.9318H219.018L221.899 23.2727H224.001L220.621 27.517L224.041 32H221.933L219.303 28.5114H218.2V32H216.501ZM226.482 35.2727C226.228 35.2727 225.997 35.2519 225.788 35.2102C225.58 35.1723 225.425 35.1307 225.322 35.0852L225.732 33.6932C226.042 33.7765 226.319 33.8125 226.561 33.8011C226.804 33.7898 227.018 33.6989 227.203 33.5284C227.393 33.358 227.559 33.0795 227.703 32.6932L227.913 32.1136L224.72 23.2727H226.538L228.749 30.0455H228.839L231.05 23.2727H232.874L229.277 33.1648C229.11 33.6193 228.898 34.0038 228.641 34.3182C228.383 34.6364 228.076 34.875 227.72 35.0341C227.364 35.1932 226.951 35.2727 226.482 35.2727Z" fill="white"/>
</svg>
