<svg width="103" height="103" viewBox="0 0 103 103" fill="none" xmlns="http://www.w3.org/2000/svg">
<g clip-path="url(#clip0_158_1142)">
<path d="M84.1635 44.724C86.0602 45.5823 87.8009 46.6281 89.3856 47.8613C90.9703 49.0946 92.3965 50.5012 93.6642 52.0812C94.9319 53.6612 95.9632 55.3846 96.7579 57.2516C97.5527 59.1185 98.1574 61.0626 98.5722 63.0838C99.1644 66.4408 99.087 69.7123 98.34 72.8981C97.593 76.0839 96.2993 78.9734 94.4588 81.5666C92.6183 84.1598 90.343 86.3497 87.633 88.1362C84.923 89.9228 81.8779 91.1285 78.4975 91.7534C75.9303 92.2058 73.3806 92.2625 70.8483 91.9235C68.316 91.5844 65.9214 90.8721 63.6646 89.7864C61.4078 88.7007 59.327 87.2931 57.422 85.5636C55.5171 83.8341 53.9275 81.831 52.6532 79.554L18.7576 85.528L7.29179 20.5316L18.1248 18.6223L17.1693 13.2059L22.5859 12.2513L23.5413 17.6677L61.457 10.9852L60.5015 5.5688L65.918 4.61415L66.8735 10.0305L77.7065 8.12123L84.1635 44.724ZM13.6638 24.9933L15.5748 35.8261L75.1565 25.325L73.2455 14.4922L67.829 15.4469L68.7844 20.8633L63.3679 21.8179L62.4124 16.4015L24.4968 23.084L25.4523 28.5004L20.0358 29.4551L19.0803 24.0387L13.6638 24.9933ZM50.4282 74.3614C50.1893 73.5018 49.9877 72.6065 49.8235 71.6756C49.3955 69.2495 49.3185 66.8343 49.5925 64.4299C49.8665 62.0256 50.5155 59.686 51.5395 57.4112L47.4348 58.1347L46.4793 52.7183L51.8958 51.7637L52.5378 55.4028C53.4406 53.7602 54.5003 52.2645 55.7168 50.9157C56.9332 49.5669 58.2899 48.3534 59.7868 47.2751C61.2837 46.1968 62.886 45.3036 64.5936 44.5954C66.3012 43.8872 68.0694 43.3574 69.8981 43.0061C72.7192 42.5088 75.5096 42.497 78.2693 42.9705L76.1119 30.7413L16.5303 41.2424L23.2187 79.157L50.4282 74.3614ZM77.542 86.337C80.1657 85.8746 82.5329 84.9483 84.6438 83.5582C86.7548 82.1681 88.5189 80.461 89.9362 78.4369C91.3535 76.4128 92.3543 74.1712 92.9386 71.7121C93.5229 69.2531 93.5952 66.6952 93.1556 64.0385C92.6928 61.4149 91.7662 59.0476 90.3757 56.9366C88.9852 54.8256 87.2778 53.0613 85.2533 51.6438C83.2289 50.2263 80.987 49.2252 78.5278 48.6406C76.0685 48.056 73.5104 47.9833 70.8536 48.4224C68.23 48.8848 65.8627 49.8111 63.7518 51.2012C61.6409 52.5913 59.8768 54.2984 58.4595 56.3225C57.0422 58.3466 56.0414 60.5882 55.4571 63.0473C54.8728 65.5063 54.8004 68.0642 55.24 70.721C55.7028 73.3445 56.6295 75.7118 58.02 77.8228C59.4104 79.9338 61.1179 81.6981 63.1423 83.1156C65.1668 84.5331 67.4086 85.5342 69.8679 86.1188C72.3272 86.7034 74.8852 86.7762 77.542 86.337ZM76.4283 64.1942L84.5531 62.7622L85.5086 68.1786L71.9673 70.5652L69.1009 54.3161L74.5174 53.3615L76.4283 64.1942ZM24.8132 56.5369L30.2297 55.5822L31.1852 60.9986L25.7687 61.9533L24.8132 56.5369ZM35.6463 54.6276L41.0628 53.673L42.0183 59.0893L36.6017 60.044L35.6463 54.6276ZM33.7353 43.7949L39.1518 42.8402L40.1073 48.2566L34.6908 49.2112L33.7353 43.7949ZM26.7242 67.3696L32.1407 66.415L33.0962 71.8314L27.6797 72.786L26.7242 67.3696ZM37.5572 65.4603L42.9738 64.5057L43.9292 69.9221L38.5127 70.8767L37.5572 65.4603ZM50.9403 46.3473L45.5238 47.3019L44.5683 41.8856L49.9848 40.9309L50.9403 46.3473ZM61.7734 44.438L56.3568 45.3927L55.4014 39.9763L60.8179 39.0216L61.7734 44.438ZM72.6064 42.5287L67.1899 43.4834L66.2344 38.067L71.6509 37.1124L72.6064 42.5287Z" fill="#FA9D3E"/>
</g>
<defs>
<clipPath id="clip0_158_1142">
<rect width="88" height="88" rx="2" transform="matrix(0.984821 -0.173572 0.173725 0.984794 0.9198 16.0698)" fill="white"/>
</clipPath>
</defs>
</svg>
