<svg width="101" height="100" viewBox="0 0 101 100" fill="none" xmlns="http://www.w3.org/2000/svg">
<path d="M96.8652 11.9851L80.7363 27.2065L96.1648 53.1753L96.8652 52.3046V11.9851ZM3.89648 12.2071V56.3269C4.77148 56.4405 5.82285 56.5032 6.88379 56.5144C9.20215 56.5388 11.1131 56.3874 12.1865 56.2909L22.4707 30.2685L3.89648 12.2071ZM79.9031 32.6876L78.5281 33.5774C78.4988 33.5964 77.4809 34.229 77.1818 34.4153L75.1105 35.6692L75.1398 35.6868C74.1801 36.2839 73.9133 36.4519 72.824 37.1282C72.2713 37.4714 72.2576 37.4794 71.7334 37.805C67.7705 35.6747 63.4705 34.0374 58.4525 32.7499C52.1416 34.6565 45.4561 37.4155 38.7803 40.0042C41.5518 43.3415 44.6318 44.4282 47.7344 44.4671C51.332 44.512 55.0098 42.9476 57.5426 41.1948L58.9879 40.1948L60.4383 42.2905L82.9877 58.5659L91.7986 52.7091L79.9031 32.6876ZM25.0834 33.2228L16.2227 55.6421L19.4746 58.1427L25.4893 51.3253L25.9711 50.7794L26.6977 50.7341C26.9906 50.7157 27.2797 50.7073 27.5648 50.7087C29.5594 50.7216 31.3426 51.2392 32.6801 52.4196C33.6707 53.2931 34.3293 54.456 34.7113 55.8024L35.1566 55.7747C37.4994 55.6282 39.6102 56.1116 41.1391 57.4603C42.6678 58.8093 43.4105 60.8437 43.557 63.1868L43.5707 63.3978C44.8285 63.6353 45.9545 64.1306 46.8701 64.9384C48.399 66.2872 49.1416 68.3212 49.2881 70.6644L49.3266 71.2737C49.4514 71.3133 49.5751 71.3561 49.6977 71.4023L50.0947 70.845L51.1631 69.3454L51.7125 68.5739L53.1441 69.5941L64.7512 77.8628C66.0137 77.5515 66.7662 77.0669 67.1848 76.4788C67.6041 75.8905 67.8162 75.0198 67.6973 73.7235L53.7797 63.7567L52.3504 62.7333L53.3641 61.3181L54.6668 59.489L56.0984 60.5091L71.7889 71.686C73.0514 71.3749 73.8045 70.8903 74.223 70.3022C74.6418 69.7144 74.8539 68.8458 74.7357 67.5519L56.6893 54.7491L55.2557 53.7315L57.2896 50.8644L58.7238 51.8815L76.7734 64.6872C78.0371 64.3759 78.7904 63.8913 79.2096 63.3028C79.6291 62.714 79.841 61.8427 79.7213 60.544L58.151 44.9757C55.2887 46.6726 51.6271 48.0319 47.6906 47.9827C43.0838 47.9251 38.1561 45.7237 34.5311 40.1605C34.3877 39.9405 34.2954 39.6911 34.261 39.4308C34.2267 39.1704 34.2511 38.9057 34.3324 38.656C34.4138 38.4064 34.5501 38.1781 34.7312 37.988C34.9124 37.7979 35.1338 37.6508 35.3793 37.5575C37.9211 36.5917 40.4893 35.5712 43.0635 34.5587L25.0838 33.2239L25.0834 33.2228ZM27.6033 54.2423L18.3135 64.7716C18.4945 66.0892 18.9072 66.9087 19.4633 67.3993C20.0193 67.8899 20.8842 68.1972 22.2141 68.2126L31.5037 57.6837C31.3227 56.3659 30.91 55.546 30.3539 55.0554C29.7979 54.5647 28.9332 54.2577 27.6031 54.2425L27.6033 54.2423ZM36.0619 59.2833L25.5711 71.1739C25.752 72.4917 26.1648 73.3116 26.7207 73.8022C27.2773 74.2925 28.1416 74.5997 29.4717 74.6148L39.9625 62.7245C39.7816 61.4065 39.3687 60.587 38.8127 60.0962C38.2566 59.6054 37.3922 59.2983 36.0621 59.2829L36.0619 59.2833ZM41.7924 66.761L32.5033 77.2903C32.6844 78.6079 33.0971 79.4276 33.6531 79.9185C34.2094 80.4091 35.074 80.7159 36.4039 80.7314L45.6934 70.2032C45.5123 68.8849 45.0996 68.0651 44.5436 67.5743C43.9875 67.0837 43.1229 66.7769 41.7928 66.7614L41.7924 66.761ZM46.617 74.405L39.04 83.0534C39.2207 84.3737 39.6334 85.1944 40.19 85.6855C40.7457 86.1757 41.6094 86.4827 42.9375 86.4985L50.5148 77.8501C50.334 76.5302 49.9211 75.7095 49.3645 75.2181C48.809 74.7278 47.9453 74.4212 46.6172 74.4052L46.617 74.405ZM53.5197 75.3405C53.8506 76.2429 54.0418 77.2429 54.1084 78.3077L54.1537 79.0312L52.5371 80.8765L57.7566 84.5946C59.0191 84.2833 59.7715 83.7987 60.1902 83.2106C60.6092 82.6228 60.8217 81.7528 60.7035 80.4581L53.5199 75.3409L53.5197 75.3405Z" fill="#FA9D3E"/>
</svg>
