<svg width="100" height="100" viewBox="0 0 100 100" fill="none" xmlns="http://www.w3.org/2000/svg">
<path d="M73.7078 65.9694C78.2886 70.1501 79.6963 72.9847 80.5463 74.577C80.7384 74.9414 80.8084 75.3578 80.7461 75.7649C80.6838 76.172 80.4924 76.5484 80.2001 76.8386C76.054 81.0309 73.3386 84.0309 69.3809 84.5001C60.5347 85.6155 47.3655 78.5963 34.4117 65.5886C21.4078 52.6386 14.3847 39.4693 15.5001 30.627C15.9693 26.6655 18.9809 23.9463 23.1809 19.7963C23.4655 19.5055 23.8366 19.3146 24.2387 19.2522C24.6408 19.1898 25.0523 19.2593 25.4117 19.4501C26.9963 20.3001 29.8386 21.7001 34.027 26.2963C38.304 31.004 39.6655 34.5424 39.9386 36.5578C39.9598 36.9267 39.9002 37.2957 39.764 37.6391C39.6278 37.9826 39.4183 38.2922 39.1501 38.5463C37.5693 40.1232 33.9501 43.4117 33.4578 45.1001C32.8078 47.1693 34.004 49.727 36.1001 52.8001C37.4078 54.6501 39.204 56.7732 41.2155 58.7886C43.227 60.8001 45.3501 62.5963 47.2001 63.904C50.277 65.9963 52.8347 67.1924 54.904 66.5424C56.5924 66.0501 59.8809 62.4347 61.4617 60.8578C61.7133 60.5873 62.0219 60.3759 62.365 60.2389C62.7082 60.1019 63.0775 60.0427 63.4463 60.0655C65.4617 60.3347 69.0001 61.7001 73.7078 65.9694ZM57.2963 20.3347C59.1886 20.3347 60.7463 21.9001 60.7463 23.7963L60.7732 34.4463L78.7386 16.4001C79.0569 16.078 79.4361 15.8223 79.854 15.6477C80.2719 15.4732 80.7203 15.3833 81.1732 15.3833C81.6261 15.3833 82.0745 15.4732 82.4924 15.6477C82.9103 15.8223 83.2894 16.078 83.6078 16.4001C84.2537 17.0488 84.6163 17.927 84.6163 18.8424C84.6163 19.7579 84.2537 20.636 83.6078 21.2847L65.6693 39.2501H76.1309C78.0193 39.2501 79.577 40.8155 79.577 42.7155C79.5791 43.1663 79.492 43.6131 79.3209 44.0302C79.1498 44.4473 78.898 44.8264 78.5799 45.1459C78.2618 45.4654 77.8838 45.7189 77.4675 45.8919C77.0512 46.0649 76.6048 46.154 76.154 46.154H57.7924C56.7431 46.1499 55.7382 45.7297 54.9984 44.9855C54.2586 44.2413 53.8442 43.2341 53.8463 42.1847L53.8732 23.7732C53.8732 21.8732 55.4309 20.3078 57.2963 20.3347Z" fill="#FA9D3E"/>
</svg>
