<svg width="40" height="40" viewBox="0 0 40 40" fill="none" xmlns="http://www.w3.org/2000/svg">
<g clip-path="url(#clip0_2759_1594)">
<path d="M35.003 19.3945C35.7843 19.9284 36.4811 20.5339 37.0931 21.2109C37.7052 21.888 38.2327 22.6302 38.6755 23.4375C39.1184 24.2448 39.444 25.0977 39.6525 25.9961C39.861 26.8945 39.9783 27.8125 40.0045 28.75C40.0047 30.2995 39.712 31.7578 39.1262 33.125C38.5405 34.4922 37.7334 35.6836 36.7049 36.6992C35.6764 37.7148 34.4852 38.5156 33.1311 39.1016C31.777 39.6875 30.3187 39.987 28.7562 40C27.5713 40 26.4255 39.8242 25.3186 39.4727C24.2118 39.1211 23.1961 38.6133 22.2715 37.9492C21.3469 37.2852 20.5265 36.4909 19.8102 35.5664C19.0939 34.6419 18.5404 33.6198 18.1496 32.5H2.50506L2.50039 2.5H7.50039L7.5 0L10 0L10.0004 2.5L27.5004 2.5L27.5 0L30 0L30.0004 2.5H35.0004L35.003 19.3945ZM5.00078 5L5.00156 10H32.5016L32.5008 5H30.0008L30.0012 7.5H27.5012L27.5008 5L10.0008 5L10.0012 7.5H7.50117L7.50078 5H5.00078ZM17.5633 30C17.5241 29.5964 17.5045 29.1797 17.5045 28.75C17.5043 27.6302 17.6604 26.543 17.9727 25.4883C18.2851 24.4336 18.7602 23.4375 19.398 22.5H17.5035L17.5031 20H20.0031L20.0034 21.6797C20.5371 21.0156 21.1295 20.4297 21.7804 19.9219C22.4314 19.4141 23.1345 18.9779 23.8896 18.6133C24.6448 18.2487 25.4325 17.9753 26.2528 17.793C27.0731 17.6107 27.9064 17.513 28.7527 17.5C30.0548 17.5 31.3048 17.7148 32.5028 18.1445L32.5019 12.5H5.00194L5.00467 30H17.5633ZM28.7558 37.5C29.9668 37.5 31.0995 37.2721 32.1542 36.8164C33.2088 36.3607 34.1332 35.7357 34.9273 34.9414C35.7215 34.1471 36.3463 33.2227 36.8019 32.168C37.2574 31.1133 37.4916 29.974 37.5045 28.75C37.5043 27.5391 37.2762 26.4062 36.8203 25.3516C36.3645 24.2969 35.7393 23.3724 34.9449 22.5781C34.1505 21.7839 33.2259 21.1589 32.1712 20.7031C31.1164 20.2474 29.9771 20.013 28.7531 20C27.5422 20 26.4094 20.2279 25.3548 20.6836C24.3002 21.1393 23.3758 21.7643 22.5816 22.5586C21.7875 23.3529 21.1626 24.2773 20.7071 25.332C20.2515 26.3867 20.0173 27.526 20.0045 28.75C20.0047 29.9609 20.2327 31.0937 20.6886 32.1484C21.1445 33.2031 21.7696 34.1276 22.564 34.9219C23.3584 35.7161 24.283 36.3411 25.3378 36.7969C26.3925 37.2526 27.5319 37.487 28.7558 37.5ZM30.0043 27.5H33.7543L33.7547 30H27.5047L27.5035 22.5H30.0035L30.0043 27.5ZM7.50311 20H10.0031L10.0035 22.5H7.5035L7.50311 20ZM12.5031 20H15.0031L15.0035 22.5H12.5035L12.5031 20ZM12.5023 15H15.0023L15.0027 17.5H12.5027L12.5023 15ZM7.50389 25H10.0039L10.0043 27.5H7.50428L7.50389 25ZM12.5039 25H15.0039L15.0043 27.5H12.5043L12.5039 25ZM20.0027 17.5H17.5027L17.5023 15H20.0023L20.0027 17.5ZM25.0027 17.5H22.5027L22.5023 15H25.0023L25.0027 17.5ZM30.0027 17.5H27.5027L27.5023 15H30.0023L30.0027 17.5Z" fill="#FA9D3E"/>
</g>
<defs>
<clipPath id="clip0_2759_1594">
<rect width="40" height="40" rx="2" transform="matrix(1 0 0.000155575 1 0 0)" fill="white"/>
</clipPath>
</defs>
</svg>
