<svg width="93" height="94" viewBox="0 0 93 94" fill="none" xmlns="http://www.w3.org/2000/svg">
<g clip-path="url(#clip0_158_1134)">
<path d="M55.3447 35.0171L24.7086 29.6012C24.1283 29.4986 23.6122 29.1696 23.274 28.6866C22.9358 28.2036 22.8032 27.6061 22.9052 27.0257L24.4449 18.2712C24.547 17.6907 24.8755 17.1748 25.358 16.8369C25.8406 16.499 26.4378 16.3668 27.0181 16.4694L57.6542 21.8853C58.2346 21.9879 58.7506 22.3169 59.0888 22.7999C59.427 23.2829 59.5597 23.8804 59.4576 24.4608L57.9179 33.2154C57.8158 33.7958 57.4874 34.3117 57.0048 34.6496C56.5222 34.9875 55.9251 35.1197 55.3447 35.0171ZM27.6667 25.6108L53.9262 30.253L54.7192 25.7444L28.4597 21.1022L27.6667 25.6108Z" fill="#FA9D3E"/>
<path d="M54.5441 39.5694L23.908 34.1535C23.3276 34.0509 22.7305 34.183 22.2479 34.5209C21.7654 34.8588 21.4369 35.3748 21.3348 35.9552L19.8259 44.5347C19.7238 45.1151 19.8565 45.7126 20.1947 46.1956C20.5329 46.6786 21.0489 47.0076 21.6293 47.1102L46.4883 51.5048L55.8779 44.815L56.3475 42.1449C56.4495 41.5644 56.3169 40.967 55.9787 40.484C55.6405 40.001 55.1245 39.672 54.5441 39.5694ZM50.8469 47.762L24.5874 43.1197L25.3573 38.7425L51.6168 43.3847L50.8469 47.762Z" fill="#FA9D3E"/>
<path d="M26.0832 73.8717L26.1063 73.7404L27.3416 70.822L11.192 67.967L21.223 10.9312L64.9888 18.6683L61.0434 41.1018L66.1474 37.739L69.7503 17.2534C69.8523 16.673 69.7197 16.0755 69.3815 15.5925C69.0433 15.1095 68.5273 14.7805 67.9469 14.6779L19.8045 6.16713C19.2241 6.06453 18.627 6.19672 18.1444 6.53462C17.6618 6.87251 17.3334 7.38844 17.2313 7.96891L6.45361 69.2506C6.35152 69.8311 6.48417 70.4285 6.82237 70.9115C7.16056 71.3945 7.67661 71.7235 8.25698 71.8261L25.7633 74.9209C25.8447 74.5639 25.9516 74.2133 26.0832 73.8717Z" fill="#FA9D3E"/>
<path d="M54.773 51.0962L52.7621 52.5235C53.2009 52.511 53.6261 52.3688 53.984 52.1148C54.3419 51.8608 54.6165 51.5063 54.773 51.0962Z" fill="#FA9D3E"/>
<path d="M16.7697 61.9124C16.6676 62.4929 16.8002 63.0903 17.1384 63.5733C17.4766 64.0563 17.9927 64.3853 18.573 64.4879L29.1644 66.3603L30.3212 63.6311L30.8174 62.4777L30.8367 62.3682L21.4927 60.7164L22.2779 56.2516L36.1517 58.7042L41.2981 55.1007L20.8594 51.4874C20.2791 51.3848 19.6819 51.517 19.1993 51.8549C18.7168 52.1928 18.3883 52.7088 18.2862 53.2892L16.7697 61.9124Z" fill="#FA9D3E"/>
<path d="M80.8788 50.0696L74.8014 41.3902C74.5319 41.0041 74.1888 40.675 73.792 40.4216C73.3952 40.1683 72.9523 39.9957 72.4889 39.9137C72.0254 39.8318 71.5504 39.8421 71.0911 39.9441C70.6317 40.0461 70.1971 40.2378 69.8121 40.5082L34.5026 65.3857L30.1784 75.4758C30.006 75.9136 29.9216 76.3812 29.9301 76.8518C29.9386 77.3225 30.0399 77.7869 30.2281 78.2184C30.4163 78.65 30.6877 79.0402 31.0268 79.3668C31.3659 79.6934 31.7661 79.9499 32.2043 80.1217C32.4259 80.1842 32.6531 80.2244 32.8827 80.2416C33.1431 80.3327 33.4166 80.381 33.6924 80.3847L44.7174 79.9191L79.9819 55.1691C80.3667 54.9016 80.6946 54.5605 80.947 54.1655C81.1993 53.7705 81.371 53.3295 81.4523 52.8677C81.5335 52.406 81.5226 51.9326 81.4202 51.475C81.3178 51.0173 81.1259 50.5843 80.8557 50.2009L80.8788 50.0696ZM43.1859 75.5412L34.865 75.8981L38.2098 68.2977L64.7047 49.5347L69.7902 56.7976L43.1859 75.5412ZM72.698 54.7615L67.6125 47.4987L71.6962 44.6776L76.8177 51.992L72.698 54.7615Z" fill="#FA9D3E"/>
</g>
<defs>
<clipPath id="clip0_158_1134">
<rect width="80" height="80" rx="2" transform="matrix(0.984731 0.174085 -0.173213 0.984884 14.0095 0.629395)" fill="white"/>
</clipPath>
</defs>
</svg>
