<?xml version="1.0" standalone="no"?>
<!DOCTYPE svg PUBLIC "-//W3C//DTD SVG 20010904//EN"
 "http://www.w3.org/TR/2001/REC-SVG-20010904/DTD/svg10.dtd">
<svg version="1.0" xmlns="http://www.w3.org/2000/svg"
 width="1280.000000pt" height="853.000000pt" viewBox="0 0 1280.000000 853.000000"
 preserveAspectRatio="xMidYMid meet">

<g transform="translate(0.000000,853.000000) scale(0.100000,-0.100000)"
fill="#000000" stroke="none">
<path d="M11497 7846 c-12 -13 -96 -130 -187 -260 -91 -129 -169 -235 -175
-234 -24 1 -35 -3 -35 -14 0 -7 -24 -34 -52 -62 -30 -27 -48 -51 -41 -53 15
-5 7 -28 -24 -69 -12 -17 -21 -33 -18 -35 2 -3 -30 -54 -71 -114 -100 -147
-99 -149 30 -238 75 -52 97 -63 93 -47 l-5 20 25 -20 c31 -24 56 -26 73 -5 10
12 10 18 -1 31 -11 13 -4 12 29 -5 49 -25 58 -41 42 -71 -9 -16 -8 -31 6 -66
9 -24 22 -44 29 -44 24 0 37 29 31 65 -6 30 -4 35 12 35 34 0 44 24 22 48 -11
12 -20 25 -20 29 0 16 -51 63 -98 90 -47 27 -62 40 -62 57 0 5 8 2 18 -7 23
-21 75 -22 92 -2 14 17 3 38 -17 31 -9 -4 -11 -2 -7 6 5 8 2 9 -10 5 -10 -4
-29 -4 -44 0 l-26 6 24 9 c16 6 42 2 85 -12 91 -30 97 -36 80 -85 -12 -34 -12
-42 0 -55 8 -9 21 -32 30 -53 18 -44 29 -46 51 -12 14 21 15 31 5 51 -14 32
-14 34 3 34 7 0 19 7 26 15 7 8 21 15 31 15 27 0 37 28 31 93 -4 49 -8 60 -28
67 -12 5 -28 18 -34 30 -6 12 -26 30 -43 40 -38 23 -29 27 13 5 35 -18 6 -52
260 310 191 271 212 307 193 326 -28 28 -271 169 -291 169 -13 0 -33 -11 -45
-24z m-184 -795 c-9 -33 23 -78 60 -85 45 -8 63 -32 65 -81 2 -35 0 -38 -12
-22 -7 9 -20 17 -29 17 -9 0 -22 10 -28 23 -6 12 -22 33 -35 47 -31 34 -43 70
-33 98 10 27 19 29 12 3z"/>
<path d="M11071 7427 c2 -2 17 -11 32 -21 27 -17 28 -17 15 4 -7 11 -21 20
-32 20 -11 0 -17 -1 -15 -3z"/>
<path d="M7155 6856 c-39 -7 -97 -27 -130 -44 l-60 -31 37 -1 c21 0 84 7 141
15 86 13 120 14 188 5 104 -15 349 -27 343 -18 -7 11 -125 47 -204 62 -117 23
-236 27 -315 12z"/>
<path d="M7054 6730 c-112 -39 -239 -139 -268 -209 -23 -59 -26 -84 -16 -153
9 -65 6 -83 -11 -58 -7 11 -8 7 -3 -12 3 -15 -1 -64 -10 -110 -15 -79 -48
-292 -60 -388 -8 -56 -18 -222 -32 -483 -4 -75 -11 -123 -15 -115 -7 10 -9 8
-9 -6 0 -23 -59 -198 -71 -210 -12 -13 -11 -29 1 -21 6 3 10 0 10 -7 1 -7 7
-1 15 13 16 29 51 50 42 25 -4 -10 -1 -13 7 -10 9 4 12 -10 10 -53 -1 -32 -3
-85 -3 -119 l-1 -61 -52 3 c-58 4 -49 -9 15 -20 35 -7 38 -9 33 -34 -9 -48
-16 -370 -7 -327 36 166 48 336 66 920 3 116 8 239 10 275 2 36 4 71 5 79 0 8
2 12 5 10 2 -3 0 -115 -5 -249 -5 -135 -10 -371 -11 -525 -2 -205 -7 -309 -19
-390 -10 -60 -18 -101 -19 -91 0 11 -3 17 -6 14 -11 -11 -26 -129 -35 -278 -6
-85 -13 -177 -16 -204 -5 -36 -4 -47 5 -42 6 4 11 19 11 34 0 54 18 58 26 6 5
-38 9 -44 15 -29 4 11 8 38 9 60 l1 40 19 -55 19 -55 -4 45 c-21 202 -23 533
-3 565 9 15 18 103 23 224 2 58 8 162 12 231 7 117 8 121 14 60 l6 -65 3 85
c3 91 4 104 17 250 l8 95 6 -160 c4 -88 2 -230 -3 -315 -6 -85 -9 -261 -6
-390 3 -129 1 -210 -3 -180 -4 30 -8 134 -9 230 -1 96 -6 186 -10 200 -6 19
-8 11 -10 -35 -1 -33 -3 -78 -5 -100 -4 -49 -4 -678 0 -755 1 -30 3 -69 4 -87
1 -31 42 -85 49 -64 2 5 19 -8 39 -30 19 -21 39 -36 45 -33 5 3 3 13 -6 23
-23 26 -20 34 14 29 27 -4 29 -2 23 20 -5 22 -4 23 15 13 14 -7 23 -8 27 -1 4
7 13 7 26 0 22 -12 23 -10 7 25 -10 23 -13 24 -18 9 -10 -27 -43 52 -36 86 3
16 1 30 -5 32 -6 2 -14 35 -19 73 -5 39 -18 108 -29 155 -12 47 -20 108 -20
135 1 28 4 39 6 25 21 -118 57 -240 68 -229 2 2 0 23 -5 47 -4 25 -4 42 2 42
5 0 7 8 3 19 -3 10 1 23 9 30 8 7 12 20 9 29 -4 10 3 6 15 -8 20 -24 21 -24
15 -2 -6 26 4 28 29 5 18 -16 18 -16 3 13 -19 36 -19 55 0 80 10 13 13 34 9
69 -7 61 9 110 32 101 9 -4 1 11 -19 33 -48 54 -70 88 -64 103 2 7 -4 25 -14
39 -20 29 -14 40 29 53 16 6 24 3 28 -11 3 -10 10 -27 15 -38 l9 -20 -4 20
c-18 81 -18 90 -5 78 17 -17 30 -16 23 1 -6 16 12 56 25 56 4 0 24 -26 43 -57
19 -32 65 -107 102 -167 37 -59 82 -139 101 -177 18 -38 47 -86 62 -107 16
-20 49 -69 74 -109 24 -40 47 -72 52 -73 14 0 7 75 -11 106 -37 68 -97 152
-153 215 -32 36 -92 124 -133 195 -85 144 -92 175 -56 258 15 33 27 46 42 46
18 0 20 4 14 41 -6 37 -5 40 14 34 17 -5 20 -2 19 22 -1 53 -16 138 -38 218
-26 94 -30 118 -45 263 -1 12 -39 62 -83 110 -138 150 -189 253 -214 433 -13
96 -6 150 51 399 33 144 59 199 108 224 57 29 300 24 410 -10 25 -7 49 -11 54
-8 4 3 8 0 8 -5 0 -6 6 -11 14 -11 8 0 21 -6 28 -13 7 -7 15 -14 18 -14 25 -1
49 -18 54 -36 10 -38 19 -30 -96 -72 -52 -18 -64 -46 -30 -71 15 -11 12 -15
-30 -34 -26 -11 -52 -29 -58 -40 -19 -35 -22 -148 -5 -196 8 -25 13 -50 9 -55
-7 -12 20 -39 40 -39 8 0 17 -3 19 -7 3 -5 -12 -8 -33 -8 -43 -1 -80 -27 -80
-56 0 -23 13 -30 79 -44 30 -6 56 -16 59 -23 4 -12 -93 -9 -233 8 -93 12 -185
-6 -185 -36 0 -8 5 -13 11 -11 6 1 20 -23 31 -53 27 -71 52 -106 90 -126 41
-21 176 -30 219 -15 23 8 35 8 37 1 5 -13 32 -13 32 1 0 5 17 36 38 67 62 92
66 112 31 167 -16 26 -29 60 -29 78 0 18 -12 52 -27 77 -18 32 -27 62 -29 105
-2 33 -6 71 -9 83 -9 37 2 57 46 87 58 38 59 25 2 -23 -38 -33 -43 -41 -25
-39 12 0 24 7 26 14 3 6 19 19 37 28 31 17 32 16 26 -4 -2 -11 1 -28 8 -38 9
-11 10 -22 4 -29 -11 -13 43 -29 130 -39 57 -7 75 -18 78 -50 1 -11 4 -37 7
-59 5 -29 2 -42 -11 -55 -10 -9 -19 -23 -19 -31 -3 -28 -13 -70 -19 -80 -3 -5
-7 -37 -7 -70 -1 -34 -5 -63 -9 -66 -5 -2 -6 -11 -3 -18 3 -7 -2 -19 -11 -26
-8 -7 -15 -19 -15 -26 0 -8 -6 -14 -14 -14 -8 0 -16 -7 -20 -15 -9 -24 -29
-18 -23 6 3 12 0 27 -7 35 -11 10 -17 6 -34 -25 -12 -20 -39 -57 -60 -82 -22
-24 -42 -53 -46 -65 -17 -55 -101 -104 -180 -104 -24 0 -25 -2 -14 -25 6 -15
23 -28 37 -31 40 -8 73 -27 85 -49 19 -35 38 -44 64 -32 21 10 28 6 63 -31 24
-27 39 -53 39 -69 0 -24 2 -25 36 -19 19 4 43 10 51 13 11 4 14 2 9 -5 -4 -7
-3 -12 2 -12 10 0 21 24 47 108 14 43 21 52 40 52 13 0 27 5 31 11 3 6 15 9
25 6 10 -3 20 0 22 6 4 14 163 15 206 0 19 -7 38 -10 42 -7 4 2 33 9 64 15 42
8 60 7 71 -2 12 -9 14 -6 14 17 1 26 8 33 70 62 39 19 70 36 70 40 0 3 -9 15
-19 26 -20 22 -95 156 -89 160 69 42 87 58 85 76 -1 18 -9 24 -29 21 -4 0 -4
7 -1 16 5 12 2 15 -9 10 -12 -4 -14 -1 -11 14 3 10 0 19 -6 19 -6 0 -11 7 -11
16 0 10 -5 14 -15 10 -13 -5 -14 -2 -4 16 10 18 9 20 -9 16 -15 -4 -18 -1 -15
13 3 11 0 19 -6 19 -6 0 -11 9 -11 20 0 11 -4 20 -10 20 -5 0 -10 7 -10 16 0
8 -4 12 -10 9 -6 -4 -10 5 -10 20 0 19 -4 26 -14 22 -10 -4 -12 0 -9 14 3 11
-1 21 -11 25 -9 3 -16 14 -17 23 0 9 -16 36 -35 61 -19 25 -43 63 -54 85 -49
101 -95 174 -138 218 -100 103 -204 167 -357 219 -51 18 -90 21 -265 23 -177
3 -212 1 -256 -15z m620 -279 c7 -10 -72 -27 -81 -17 -7 7 34 24 59 25 9 1 19
-3 22 -8z m-915 -371 c0 -10 -3 -8 -9 5 -12 27 -12 43 0 25 5 -8 9 -22 9 -30z
m-7 -80 c-2 -21 -10 -44 -18 -51 -10 -8 -14 -8 -14 0 0 6 5 11 10 11 6 0 10
15 10 33 0 27 6 47 14 47 1 0 0 -18 -2 -40z m-31 -211 c-8 -117 -9 -119 -8
-34 0 92 6 169 13 162 2 -2 0 -59 -5 -128z m577 101 c115 -12 135 -17 129 -34
-10 -29 -269 8 -281 41 -5 11 0 13 22 9 15 -3 73 -10 130 -16z m-78 -55 c18
-16 123 -35 151 -28 11 3 19 1 19 -5 0 -10 -46 -22 -85 -22 -38 0 -135 42
-147 63 -9 18 -8 19 18 13 16 -4 36 -14 44 -21z m-483 -37 c-3 -7 -5 -2 -5 12
0 14 2 19 5 13 2 -7 2 -19 0 -25z m498 -28 c3 -5 1 -10 -4 -10 -6 0 -11 5 -11
10 0 6 2 10 4 10 3 0 8 -4 11 -10z m-601 -707 c-16 -31 -41 -47 -31 -20 3 6
13 38 23 69 l19 57 3 -37 c2 -22 -3 -50 -14 -69z m223 -685 c-3 -8 -6 -5 -6 6
-1 11 2 17 5 13 3 -3 4 -12 1 -19z m-60 -170 c-3 -8 -6 -5 -6 6 -1 11 2 17 5
13 3 -3 4 -12 1 -19z m10 -70 c-2 -13 -4 -5 -4 17 -1 22 1 32 4 23 2 -10 2
-28 0 -40z m27 -95 c3 -4 6 11 6 32 0 21 2 36 5 33 10 -9 45 -209 39 -219 -3
-5 -1 -9 4 -9 5 0 16 -20 24 -44 13 -39 13 -43 -2 -39 -20 5 -53 59 -45 73 3
6 -1 10 -9 10 -17 0 -22 17 -30 100 -3 30 -8 73 -10 95 -5 37 -5 38 3 7 5 -18
11 -36 15 -39z m27 -300 c13 -16 12 -17 -3 -4 -10 7 -18 15 -18 17 0 8 8 3 21
-13z"/>
<path d="M7030 6585 c-14 -8 -37 -26 -50 -41 -22 -24 -22 -26 -5 -19 47 19 82
16 159 -15 84 -34 146 -48 146 -34 -1 22 -75 84 -101 84 -7 0 -20 7 -28 15
-24 21 -91 26 -121 10z"/>
<path d="M7085 6473 c-50 -9 -95 -36 -95 -57 1 -24 35 -68 67 -85 27 -14 46
-14 38 -1 -3 6 -14 10 -24 10 -10 0 -24 7 -31 15 -10 13 -10 19 5 35 26 28 44
25 42 -7 -2 -20 5 -31 26 -42 27 -16 29 -15 54 14 24 27 26 28 21 7 -8 -29 15
-40 37 -19 8 8 20 17 27 19 8 3 4 14 -11 34 -35 48 -110 85 -156 77z"/>
<path d="M10833 6367 c-23 -12 -42 -29 -43 -37 0 -8 -8 -35 -17 -60 -14 -37
-17 -86 -18 -265 -1 -121 -5 -249 -9 -285 -3 -36 -10 -119 -15 -185 -11 -143
-15 -155 -50 -156 -53 -1 11 -18 69 -17 72 0 94 7 119 40 20 24 20 26 2 21
-18 -4 -18 4 -17 164 0 92 0 268 -2 391 -2 168 1 238 12 285 21 90 26 127 18
126 -4 0 -26 -10 -49 -22z"/>
<path d="M3915 6140 c-11 -4 -28 -17 -39 -28 -18 -21 -18 -22 40 -74 32 -29
78 -71 102 -92 23 -21 40 -32 36 -23 -4 11 -1 17 7 17 11 0 11 2 -1 10 -12 7
-12 12 -2 22 20 20 14 33 -7 14 -11 -10 -21 -13 -25 -7 -4 5 -2 12 4 16 5 3
10 15 10 26 0 26 12 24 40 -6 13 -14 20 -25 16 -25 -5 0 -3 -7 4 -15 7 -8 21
-15 32 -15 10 0 17 -4 14 -9 -8 -12 37 -58 52 -53 20 6 13 -21 -13 -52 l-24
-28 22 -19 c30 -25 16 -24 -29 3 -36 21 -37 21 -51 2 -8 -10 -33 -54 -55 -97
-22 -43 -42 -76 -45 -74 -2 3 5 20 15 38 l20 34 -186 91 c-203 100 -212 102
-245 45 l-19 -31 117 -55 c64 -30 118 -55 121 -55 7 0 0 25 -10 31 -4 4 -3 16
3 28 7 11 8 21 2 21 -5 0 -11 -7 -15 -15 -9 -26 -23 -16 -22 15 1 20 6 30 16
30 21 -1 53 -27 46 -38 -5 -8 7 -12 47 -13 9 0 17 -5 17 -10 0 -11 49 -33 68
-30 6 1 12 -5 12 -14 0 -8 -4 -15 -8 -15 -4 0 -13 -14 -19 -30 -10 -28 -9 -31
13 -36 23 -6 22 -8 -58 -163 -93 -177 -153 -285 -143 -256 3 11 7 24 8 29 2 7
-364 186 -379 186 -12 0 -2 -39 14 -53 9 -8 89 -49 177 -90 88 -41 159 -79
158 -83 -1 -5 -4 -16 -8 -25 -5 -13 22 -30 127 -81 73 -35 193 -97 266 -136
73 -40 137 -72 141 -72 4 0 13 11 18 23 15 33 123 147 148 157 52 19 70 23 58
10 -17 -18 25 -52 49 -39 23 13 28 11 22 -6 -3 -8 -16 -17 -27 -21 -43 -13
-104 -64 -117 -96 -7 -18 -18 -39 -23 -46 -14 -18 -18 -63 -8 -77 5 -5 8 -25
6 -42 -1 -18 3 -37 9 -42 9 -8 16 12 28 77 24 125 39 164 68 178 50 24 108 36
160 33 l54 -4 97 200 c54 110 95 203 91 206 -4 3 -47 28 -97 54 -178 94 -202
111 -361 252 -159 140 -162 142 -167 114 -3 -16 -14 -31 -23 -35 -15 -6 -15
-4 -3 10 13 16 11 17 -14 10 -21 -5 -27 -4 -21 5 5 8 2 10 -8 6 -13 -4 -15 -1
-9 21 4 16 16 29 30 32 19 4 1 24 -129 140 -83 74 -157 138 -163 141 -7 4 -21
3 -32 -1z m62 -57 c-5 -26 -4 -26 9 -8 8 10 15 16 15 12 1 -4 2 -10 3 -14 1
-5 5 -14 10 -21 5 -9 2 -18 -10 -26 -16 -12 -22 -9 -52 21 -31 33 -32 36 -15
49 30 23 46 17 40 -13z m-267 -245 c0 -17 3 -19 9 -9 7 11 12 10 28 -5 18 -18
19 -20 3 -35 -16 -15 -20 -14 -58 6 l-41 22 22 21 c27 28 37 28 37 0z"/>
<path d="M7390 6070 c-9 -6 -10 -10 -3 -10 6 0 15 5 18 10 8 12 4 12 -15 0z"/>
<path d="M4101 5891 c-9 -6 -10 -11 -2 -15 6 -4 11 -1 11 6 1 8 6 6 15 -6 8
-11 15 -15 15 -9 0 17 -25 33 -39 24z"/>
<path d="M4150 5860 c0 -5 5 -10 10 -10 6 0 10 5 10 10 0 6 -4 10 -10 10 -5 0
-10 -4 -10 -10z"/>
<path d="M4252 5838 c2 -6 10 -14 16 -16 7 -2 10 2 6 12 -7 18 -28 22 -22 4z"/>
<path d="M3875 5680 c-3 -5 -1 -10 4 -10 6 0 11 5 11 10 0 6 -2 10 -4 10 -3 0
-8 -4 -11 -10z"/>
<path d="M3908 5678 c6 -6 18 -8 28 -6 14 3 12 5 -9 10 -19 3 -25 2 -19 -4z"/>
<path d="M10412 5595 c0 -16 2 -22 5 -12 2 9 2 23 0 30 -3 6 -5 -1 -5 -18z"/>
<path d="M10421 5544 c0 -11 3 -14 6 -6 3 7 2 16 -1 19 -3 4 -6 -2 -5 -13z"/>
<path d="M7248 5503 c6 -2 18 -2 25 0 6 3 1 5 -13 5 -14 0 -19 -2 -12 -5z"/>
<path d="M8560 5490 c0 -13 11 -13 30 0 12 8 11 10 -7 10 -13 0 -23 -4 -23
-10z"/>
<path d="M8175 5270 c-3 -6 -23 -19 -43 -30 l-37 -19 31 -1 c32 0 46 10 57 43
7 19 2 23 -8 7z"/>
<path d="M7982 5213 l-83 -4 6 -29 c8 -37 -20 -79 -73 -111 -54 -32 -82 -60
-82 -80 0 -10 -34 -51 -75 -92 -75 -73 -95 -109 -95 -169 0 -16 4 -28 10 -28
13 0 86 100 141 195 53 91 95 145 113 145 30 0 107 116 89 134 -4 3 14 6 38 6
24 0 62 9 84 19 22 11 33 19 25 18 -8 -1 -52 -3 -98 -4z"/>
<path d="M7803 5154 c-3 -8 0 -21 6 -27 14 -14 44 2 49 27 5 22 -46 22 -55 0z"/>
<path d="M10226 5107 c3 -10 9 -15 12 -12 3 3 0 11 -7 18 -10 9 -11 8 -5 -6z"/>
<path d="M6506 4934 c-15 -14 -26 -27 -24 -29 2 -3 17 9 33 25 35 36 30 39 -9
4z"/>
<path d="M6600 4907 l-23 -32 29 27 c15 15 26 30 23 33 -3 2 -16 -10 -29 -28z"/>
<path d="M9953 4837 c4 -28 15 -47 44 -72 21 -19 42 -34 46 -35 20 -1 16 34
-9 88 -24 53 -30 59 -56 58 -29 -1 -30 -3 -25 -39z"/>
<path d="M4786 4824 c-3 -25 -3 -50 0 -55 8 -14 40 -11 54 6 10 12 8 22 -14
55 -14 22 -28 40 -30 40 -2 0 -6 -21 -10 -46z"/>
<path d="M4810 4711 c12 -23 29 -35 37 -27 4 3 -4 15 -17 26 -29 25 -33 25
-20 1z"/>
<path d="M4830 4589 c-16 -14 -19 -19 -7 -15 32 10 18 -22 -25 -53 -27 -20
-59 -33 -90 -37 -34 -5 -48 -11 -44 -20 3 -7 -2 -15 -10 -18 -9 -3 -12 -1 -9
4 3 6 3 10 -2 11 -38 5 -85 7 -82 5 2 -2 40 -22 84 -45 44 -22 90 -51 103 -65
19 -21 35 -25 120 -32 53 -4 102 -7 107 -6 18 3 34 -49 51 -163 9 -60 18 -112
20 -114 4 -4 9 147 6 182 -1 9 7 34 18 55 32 58 26 212 -7 212 -8 0 -26 9 -39
19 -14 11 -42 22 -63 26 -27 4 -42 13 -49 31 -7 13 -20 24 -31 24 -11 0 -21 4
-23 10 -1 5 -14 0 -28 -11z"/>
<path d="M6713 4445 c0 -33 2 -45 4 -27 2 18 2 45 0 60 -2 15 -4 0 -4 -33z"/>
<path d="M8365 4454 c-99 -24 -197 -49 -218 -56 -66 -20 -32 -19 58 2 48 11
89 19 90 18 2 -2 7 -28 12 -58 l10 -55 7 47 c9 52 0 46 151 98 91 32 126 51
90 49 -11 0 -101 -21 -200 -45z"/>
<path d="M7990 4345 c-52 -18 -88 -34 -81 -34 26 -2 181 49 181 59 0 6 -1 10
-2 9 -2 0 -46 -16 -98 -34z"/>
<path d="M6707 4363 c-7 -7 2 -364 10 -373 2 -2 3 82 3 188 -1 106 -3 192 -4
192 -2 0 -6 -3 -9 -7z"/>
<path d="M5157 4228 c-5 -14 9 -45 30 -66 11 -11 13 -10 13 7 0 11 -7 26 -15
35 -9 8 -15 18 -15 21 3 13 -8 16 -13 3z"/>
<path d="M7380 4214 c0 -6 7 -19 16 -30 14 -18 14 -18 3 6 -14 31 -19 36 -19
24z"/>
<path d="M7231 4110 l2 -85 10 73 c7 53 7 76 -2 85 -8 8 -11 -10 -10 -73z"/>
<path d="M5201 4043 c-1 -53 -4 -99 -6 -102 -3 -2 0 -10 6 -18 6 -7 8 -13 4
-13 -4 0 -3 -6 3 -13 6 -7 11 -22 10 -32 -1 -11 4 -46 11 -77 7 -32 10 -62 6
-68 -8 -13 4 -52 14 -46 4 3 7 -17 7 -44 -1 -28 4 -52 9 -54 6 -2 -1 -8 -14
-13 -21 -8 -22 -11 -7 -16 13 -5 15 -11 6 -27 -6 -11 -7 -20 -3 -20 4 0 -3 -9
-16 -21 -12 -12 -20 -27 -17 -35 3 -8 0 -11 -9 -8 -10 4 -12 0 -8 -16 4 -13 0
-25 -8 -31 -10 -6 -11 -11 -3 -19 13 -13 7 -50 -8 -50 -5 0 -8 28 -7 63 2 41
-3 74 -14 97 -9 19 -18 46 -19 59 -2 14 -11 33 -20 43 -23 23 -31 23 -19 -1 6
-10 8 -21 5 -24 -3 -3 -1 -52 5 -109 11 -102 28 -151 75 -220 12 -18 41 -79
65 -136 24 -56 56 -122 72 -145 16 -23 29 -46 29 -51 0 -5 -38 -6 -87 -2 -53
3 -82 2 -74 -3 8 -5 12 -20 9 -38 -9 -65 33 -67 270 -16 80 17 80 28 0 39 -27
4 -48 10 -48 14 0 3 12 17 26 31 34 31 126 172 151 229 54 124 54 219 2 300
-18 28 -34 50 -36 50 -2 0 -1 -6 3 -12 5 -9 2 -9 -9 1 -19 15 -24 36 -6 25 8
-5 8 -1 0 14 -15 28 -2 33 52 23 31 -5 63 -22 99 -51 l53 -44 -45 48 c-55 59
-87 76 -140 76 -40 0 -40 -1 -35 -31 4 -22 2 -30 -7 -26 -7 2 -12 10 -10 16 1
6 -5 11 -14 11 -11 0 -14 6 -9 20 4 12 2 20 -5 20 -6 0 -8 -5 -4 -12 6 -10 3
-9 -8 0 -9 8 -16 19 -14 25 1 7 1 9 -1 5 -12 -21 -21 -4 -16 29 4 24 3 34 -5
29 -6 -3 -15 8 -22 29 -11 33 -13 35 -25 18 -15 -20 -13 -22 -30 62 -11 59
-34 107 -48 98 -6 -3 -7 -1 -3 5 3 6 -9 39 -28 74 -18 35 -41 89 -50 120 -9
31 -20 59 -25 62 -5 3 -9 -38 -10 -91z"/>
<path d="M6337 3949 c13 -38 21 -74 17 -80 -3 -6 -20 -8 -38 -5 -30 6 -32 4
-45 -39 -13 -44 -13 -46 13 -70 31 -29 25 -49 -12 -42 -21 4 -33 -3 -59 -31
-18 -20 -33 -42 -33 -49 0 -8 -7 -16 -15 -19 -8 -3 -17 -14 -20 -25 -4 -11
-11 -16 -18 -12 -6 4 1 -9 17 -27 15 -19 48 -60 73 -92 34 -42 53 -58 79 -63
35 -6 56 5 62 35 2 8 16 30 30 49 50 62 72 95 72 108 0 7 7 13 15 13 8 0 15 2
15 4 0 4 -115 343 -125 368 -4 9 -17 24 -30 32 l-23 15 25 -70z"/>
<path d="M7541 3974 c0 -11 3 -14 6 -6 3 7 2 16 -1 19 -3 4 -6 -2 -5 -13z"/>
<path d="M7005 3920 c-13 -5 -14 -9 -5 -9 8 0 24 4 35 9 13 5 14 9 5 9 -8 0
-24 -4 -35 -9z"/>
<path d="M6950 3900 c0 -5 7 -7 15 -4 8 4 15 8 15 10 0 2 -7 4 -15 4 -8 0 -15
-4 -15 -10z"/>
<path d="M6711 3874 c0 -11 3 -14 6 -6 3 7 2 16 -1 19 -3 4 -6 -2 -5 -13z"/>
<path d="M6657 3826 c-50 -18 -59 -19 -67 -6 -8 13 -10 13 -10 -2 0 -20 -27
-38 -56 -38 -4 0 -1 -7 6 -15 7 -8 17 -12 22 -9 5 3 15 -2 22 -12 12 -16 14
-15 19 8 6 21 15 27 51 32 51 8 80 26 75 48 -4 13 -12 12 -62 -6z"/>
<path d="M7581 3804 c-2 -18 32 -119 36 -109 2 6 -5 35 -16 65 -11 30 -20 50
-20 44z"/>
<path d="M6995 3698 c4 -13 11 -27 16 -33 5 -5 4 5 -2 23 -12 36 -24 44 -14
10z"/>
<path d="M8250 3654 c-47 -18 -79 -33 -73 -33 7 -1 36 8 65 19 29 11 60 20 69
20 9 0 22 7 29 15 17 20 9 18 -90 -21z"/>
<path d="M5670 3673 c0 -9 151 -44 159 -37 3 3 -3 12 -12 21 -18 18 -147 33
-147 16z"/>
<path d="M7630 3629 c0 -13 5 -31 10 -39 7 -11 8 -5 4 20 -8 43 -14 51 -14 19z"/>
<path d="M7021 3604 c6 -21 13 -41 16 -44 9 -9 -9 65 -18 74 -4 5 -3 -8 2 -30z"/>
<path d="M7651 3540 c0 -8 4 -22 9 -30 12 -18 12 -2 0 25 -6 13 -9 15 -9 5z"/>
<path d="M6094 3375 c-3 -14 -1 -45 5 -70 6 -24 11 -62 11 -84 0 -23 3 -41 6
-41 19 0 65 38 75 62 6 15 15 28 20 28 19 0 9 49 -11 55 -11 3 -19 9 -17 13 3
12 -36 49 -60 56 -18 6 -24 2 -29 -19z"/>
<path d="M7662 3361 c-13 -43 -14 -86 -3 -116 5 -13 10 9 13 65 3 47 4 86 3
88 -1 1 -7 -15 -13 -37z"/>
<path d="M5890 3384 c0 -13 53 -91 78 -115 22 -19 22 -19 22 0 0 10 -22 43
-50 72 -27 29 -50 48 -50 43z"/>
<path d="M5757 3337 c22 -35 66 -97 69 -97 1 0 -4 20 -13 45 -8 25 -19 42 -24
39 -5 -3 -12 2 -15 10 -3 9 -10 16 -16 16 -5 0 -5 -6 -1 -13z"/>
<path d="M5707 3309 c3 -18 12 -51 19 -74 17 -57 31 -20 14 40 -16 56 -43 85
-33 34z"/>
<path d="M5673 3197 c0 -29 4 -44 10 -38 6 6 5 24 -1 48 l-11 38 2 -48z"/>
<path d="M7160 3230 c-9 -6 -10 -10 -3 -10 6 0 15 5 18 10 8 12 4 12 -15 0z"/>
<path d="M5874 3125 c-1 -49 -7 -103 -14 -120 -20 -48 -29 -105 -16 -105 20 0
55 30 50 43 -2 7 4 21 15 31 11 10 18 22 16 27 -3 4 -1 10 5 14 18 11 10 59
-23 130 l-32 71 -1 -91z"/>
<path d="M5851 3074 c-9 -38 -31 -82 -67 -135 -30 -44 -54 -81 -54 -83 0 -1
23 -3 50 -5 50 -2 65 10 33 27 -12 7 -25 5 -42 -6 -19 -13 -15 -5 16 31 42 49
66 105 78 185 10 60 0 52 -14 -14z"/>
<path d="M5618 3081 c-19 -49 -16 -63 8 -39 10 9 14 28 12 49 l-3 34 -17 -44z"/>
<path d="M5970 3055 c-13 -14 -21 -27 -18 -30 2 -3 17 9 33 25 16 17 24 30 19
30 -6 0 -21 -11 -34 -25z"/>
<path d="M8042 3000 c-6 -11 -12 -27 -12 -35 0 -8 -4 -15 -8 -15 -12 0 -99
-148 -117 -199 -17 -49 -19 -70 -6 -56 17 20 162 306 159 316 -2 5 -9 0 -16
-11z"/>
<path d="M7713 2950 c0 -30 2 -43 4 -27 2 15 2 39 0 55 -2 15 -4 2 -4 -28z"/>
<path d="M7722 2820 c0 -14 2 -19 5 -12 2 6 2 18 0 25 -3 6 -5 1 -5 -13z"/>
<path d="M5193 2714 c4 -37 9 -69 12 -73 8 -7 467 69 479 80 12 11 -7 17 -79
23 -33 3 -123 13 -200 21 -77 8 -158 15 -179 15 l-39 0 6 -66z"/>
<path d="M1724 2729 c-72 -22 -145 -81 -176 -142 -17 -34 -19 -52 -15 -103 7
-71 33 -144 53 -144 7 0 24 -11 38 -25 14 -14 33 -25 42 -25 12 0 15 -6 10
-22 -4 -13 -9 -36 -11 -53 l-5 -30 15 33 c17 37 30 122 44 299 10 123 23 165
64 211 24 26 21 26 -59 1z"/>
<path d="M3305 2710 c11 -5 191 -32 400 -60 706 -92 1141 -140 1274 -140 36 0
109 -7 163 -16 95 -16 103 -16 211 4 112 21 406 64 547 80 l75 9 -35 13 -35
14 55 17 55 18 -50 -6 c-50 -5 -447 -68 -495 -78 -25 -5 -25 -4 -22 35 l4 41
-33 -3 c-33 -3 -34 -5 -33 -45 l1 -41 -61 -12 c-128 -26 -204 -21 -900 55
-375 42 -764 84 -866 95 -102 11 -205 22 -230 25 -34 3 -40 2 -25 -5z"/>
<path d="M5857 2683 c-12 -11 -8 -23 8 -23 8 0 15 7 15 15 0 16 -12 20 -23 8z"/>
<path d="M5785 2669 c-4 -6 -3 -15 3 -21 6 -6 11 -4 15 6 7 18 -9 31 -18 15z"/>
<path d="M5720 2655 c0 -8 5 -15 10 -15 6 0 10 7 10 15 0 8 -4 15 -10 15 -5 0
-10 -7 -10 -15z"/>
<path d="M5578 2653 c-22 -3 -28 -10 -28 -29 0 -25 20 -31 54 -18 16 6 23 55
9 53 -5 -1 -20 -4 -35 -6z"/>
<path d="M5640 2639 c0 -14 5 -19 17 -17 26 5 29 38 4 38 -15 0 -21 -6 -21
-21z"/>
<path d="M5477 2633 c-4 -3 -7 -15 -7 -25 0 -16 6 -19 33 -16 24 2 33 8 35 26
3 18 -1 22 -26 22 -16 0 -32 -3 -35 -7z"/>
<path d="M5323 2613 c-17 -3 -23 -11 -23 -29 0 -22 4 -25 33 -22 27 2 33 8 35
31 3 28 1 29 -45 20z"/>
<path d="M9233 2316 c3 -8 11 -34 18 -58 l13 -43 6 35 c7 40 -2 65 -26 74 -11
4 -15 2 -11 -8z"/>
<path d="M9307 2115 c-7 -17 7 -102 18 -113 6 -6 -4 118 -10 126 -1 2 -5 -4
-8 -13z"/>
<path d="M1600 1962 c0 -23 -4 -52 -9 -66 -9 -21 -5 -30 24 -61 31 -33 34 -40
29 -79 -7 -51 -6 -51 151 -90 55 -13 181 -47 280 -76 228 -65 415 -102 740
-145 143 -19 305 -42 360 -50 335 -50 698 -66 1071 -45 128 7 244 10 259 6 26
-7 27 -8 9 -21 -11 -8 -29 -15 -41 -15 -22 0 -23 -3 -22 -82 1 -88 16 -76 18
14 1 26 5 49 9 52 5 3 7 -30 4 -73 -2 -44 0 -86 6 -97 11 -21 94 -42 179 -46
40 -2 41 -3 41 -36 0 -38 14 -52 90 -88 28 -14 52 -27 52 -29 0 -2 -33 -14
-72 -26 -102 -29 -188 -72 -224 -111 -17 -18 -55 -86 -84 -151 -84 -188 -106
-212 -210 -227 -36 -6 -90 -14 -120 -19 -50 -8 -47 -9 25 -4 45 3 134 -2 202
-11 86 -10 131 -12 151 -5 16 5 52 37 81 69 32 36 62 60 74 60 11 0 81 -28
156 -62 l136 -62 210 -9 c175 -9 233 -7 350 6 232 27 435 86 505 147 20 17 16
16 -23 -6 l-49 -27 4 24 c2 13 9 23 15 22 6 -1 17 4 23 12 7 8 18 15 25 15 6
0 20 9 30 20 10 11 26 20 35 20 10 0 23 6 29 14 9 11 3 20 -31 45 -23 17 -47
31 -54 31 -13 0 -27 32 -45 100 -20 81 -74 160 -108 160 -13 1 -12 4 3 15 11
8 16 15 11 15 -4 0 0 9 10 20 10 11 13 20 8 20 -6 0 -13 11 -15 25 -3 14 -1
25 5 25 5 0 4 7 -3 15 -7 9 -8 15 -2 15 12 0 11 32 -1 41 -5 3 18 9 49 13 92
11 104 15 104 41 0 13 6 25 12 27 18 6 19 66 2 116 -8 23 -14 56 -14 72 0 27
-3 30 -30 30 -41 0 -38 18 5 26 19 3 35 10 35 14 0 5 39 11 88 15 48 4 116 11
152 17 36 5 85 11 109 13 42 3 85 25 49 25 -13 0 -17 13 -20 58 -2 31 -1 67 3
79 6 15 2 29 -10 45 -20 25 -21 28 -21 59 0 18 -4 20 -22 14 -124 -38 -720
-91 -1548 -137 -467 -26 -1059 -30 -1240 -10 -735 84 -1158 147 -1525 227
-110 24 -256 56 -324 71 -69 14 -131 28 -138 31 -9 4 -13 -6 -13 -35z m4456
-1292 c26 -10 26 -11 8 -25 -10 -8 -27 -15 -37 -15 -19 0 -58 -20 -69 -34 -8
-12 -40 63 -32 75 7 12 97 11 130 -1z m-1270 -51 c-14 -17 -29 -41 -32 -55 -7
-28 -5 -27 -38 -14 -14 5 -26 16 -26 24 0 22 68 76 96 76 l26 0 -26 -31z m260
-40 c41 -11 74 -42 59 -57 -3 -3 -46 1 -96 9 -91 16 -115 11 -87 -17 8 -8 54
-24 104 -36 49 -12 90 -22 91 -23 1 0 -1 -11 -4 -24 -6 -23 -8 -23 -83 -17
-100 8 -143 23 -135 45 5 12 4 13 -6 4 -17 -17 -73 12 -65 33 3 9 6 20 6 25 0
14 28 11 33 -3 4 -8 8 -4 12 9 4 13 11 20 16 17 5 -3 9 2 9 10 0 9 10 18 23
20 51 11 62 14 70 15 5 0 28 -4 53 -10z m-246 -51 c0 -6 -6 -5 -15 2 -8 7 -15
14 -15 16 0 2 7 1 15 -2 8 -4 15 -11 15 -16z"/>
<path d="M1558 1791 c-13 -55 -11 -62 15 -56 20 5 25 1 34 -27 l11 -33 -1 30
c0 17 2 48 5 70 3 22 3 31 1 20 -4 -20 -29 -45 -44 -45 -4 0 -9 17 -11 38 l-3
37 -7 -34z"/>
<path d="M6625 1550 c-3 -5 -11 -7 -19 -4 -7 3 -50 -11 -95 -31 -46 -19 -89
-35 -96 -35 -13 0 -25 -51 -25 -112 0 -20 -4 -40 -10 -43 -5 -3 -10 -21 -10
-40 0 -19 5 -37 10 -40 6 -3 10 -21 10 -40 0 -19 5 -37 10 -40 18 -11 11 -31
-15 -43 -14 -6 -25 -20 -25 -29 0 -22 42 -63 64 -63 9 0 34 -19 56 -42 l39
-43 -47 -10 c-41 -9 -47 -14 -50 -37 -3 -23 2 -28 35 -37 54 -15 177 -13 248
4 33 8 71 14 85 15 32 0 110 41 176 91 28 22 56 39 62 39 28 0 62 -25 62 -45
0 -12 19 -43 41 -69 29 -32 43 -58 45 -82 4 -45 10 -54 37 -54 23 -1 67 -32
67 -47 0 -10 80 -73 93 -73 5 0 -9 21 -31 48 -22 26 -58 84 -81 129 -36 73
-41 91 -41 150 0 52 5 76 21 103 36 60 81 111 123 143 23 16 34 27 26 24 -89
-35 -150 -60 -175 -72 -45 -21 -96 -26 -140 -14 -22 6 -68 11 -102 12 -34 0
-60 4 -58 8 3 4 -7 14 -21 24 -38 25 -61 50 -69 77 -5 12 -7 24 -6 26 1 1 -5
15 -13 30 -8 15 -22 56 -31 90 -17 67 -45 131 -57 132 -4 0 -11 -18 -14 -40
-7 -42 -23 -51 -44 -25 -17 21 -27 11 -35 -35 -8 -45 -17 -50 -38 -19 l-15 20
-16 -23 c-9 -12 -16 -37 -16 -54 0 -21 -10 -41 -30 -62 -25 -27 -30 -29 -30
-13 0 11 -6 21 -12 24 -10 3 -9 8 2 22 11 14 11 17 2 11 -11 -7 -12 -4 -4 11
11 20 74 79 134 126 20 15 38 36 41 47 5 20 -7 28 -18 10z"/>
<path d="M2190 1522 c53 -18 85 -24 75 -13 -5 5 -30 12 -55 15 -31 4 -37 3
-20 -2z"/>
<path d="M7751 1410 c-41 -41 -74 -80 -73 -85 1 -6 -13 -16 -31 -23 -46 -17
-68 -14 -32 3 27 14 28 15 5 11 -47 -8 -135 -32 -152 -42 -19 -10 94 -10 143
1 18 4 29 3 29 -4 0 -6 5 -11 11 -11 5 0 7 5 3 12 -4 7 -3 8 4 4 14 -9 16 -85
2 -106 -8 -12 -10 -12 -16 4 -4 10 -10 32 -13 49 -8 38 -24 44 -50 18 -15 -15
-21 -34 -21 -67 0 -40 -2 -45 -15 -34 -11 9 -15 9 -15 1 0 -19 32 -26 44 -9 6
8 16 13 23 11 8 -3 4 -13 -10 -29 -18 -21 -28 -24 -57 -20 l-35 6 45 -23 c44
-22 46 -22 66 -5 11 10 24 15 29 11 4 -5 5 -2 1 5 -5 7 -14 11 -22 8 -8 -3
-14 -1 -14 5 0 7 12 9 34 5 20 -4 37 -2 41 4 3 5 13 10 21 10 10 0 8 -6 -7
-21 -11 -11 -18 -23 -15 -26 3 -3 13 2 22 11 9 10 23 15 32 11 8 -3 22 0 31 7
14 12 14 11 2 -4 -7 -10 -20 -18 -27 -18 -8 0 -14 -7 -14 -15 0 -8 7 -15 15
-15 8 0 15 -6 15 -12 0 -10 2 -10 9 0 6 11 10 10 15 -5 7 -17 8 -17 17 0 6 9
7 27 3 40 -6 18 -5 20 8 10 8 -7 18 -10 22 -6 3 4 -1 -8 -10 -25 -16 -33 -11
-73 8 -69 6 1 12 -3 15 -10 3 -8 -8 -11 -32 -10 -29 2 -35 5 -31 20 3 13 0 17
-11 13 -8 -3 -19 -6 -23 -6 -15 0 -32 -40 -25 -58 6 -15 8 -15 14 2 6 15 9 11
18 -19 10 -33 10 -35 -5 -23 -13 11 -15 11 -9 -4 4 -12 2 -18 -8 -18 -8 0 -19
-8 -24 -17 -6 -11 -11 -13 -11 -5 0 7 -5 10 -11 7 -6 -4 -8 -13 -5 -20 2 -7
-6 -17 -20 -23 -20 -10 -25 -8 -35 11 -14 24 -39 46 -54 47 -5 0 -4 -4 4 -9
16 -10 3 -20 -43 -32 -25 -7 -22 -8 16 -4 33 3 50 0 58 -11 7 -8 10 -17 6 -21
-3 -3 -6 -1 -6 5 0 24 -29 11 -50 -23 -12 -19 -26 -35 -31 -35 -4 0 -6 -7 -2
-16 4 -11 12 -5 30 25 13 23 27 41 30 41 3 0 2 -24 -1 -53 -6 -48 -5 -55 18
-76 30 -28 39 -24 56 29 7 23 18 44 23 47 5 3 7 0 4 -8 -30 -75 -31 -87 -3
-124 15 -19 33 -35 40 -35 7 0 23 -9 36 -20 26 -22 61 -25 111 -9 34 11 45 15
104 38 35 15 118 42 199 66 75 23 116 59 125 111 8 45 8 45 131 24 95 -16 361
-7 443 15 64 17 157 61 157 74 0 13 -46 19 -65 8 -40 -22 -3 11 54 48 33 22
59 41 57 42 -4 5 -69 -28 -95 -49 -58 -44 -221 1 -393 110 -166 106 -232 133
-387 163 -151 29 -233 88 -329 237 l-37 57 -74 -75z m8 -153 c0 -18 -4 -41 -9
-52 -6 -14 -9 -4 -9 38 -1 36 3 56 9 52 6 -3 10 -21 9 -38z m81 14 c0 -12 -20
-36 -20 -24 0 6 -3 19 -6 27 -5 12 -2 15 10 10 9 -3 16 -9 16 -13z m22 -198
c7 -8 7 -13 0 -13 -14 0 -22 25 -23 73 -1 23 -3 34 -6 25 -7 -29 -19 -21 -21
15 -1 19 5 42 15 54 18 22 18 20 21 -59 2 -45 8 -88 14 -95z m-242 119 c0 -15
-2 -15 -10 -2 -13 20 -13 33 0 25 6 -3 10 -14 10 -23z m98 -17 c-3 -3 -9 2
-12 12 -6 14 -5 15 5 6 7 -7 10 -15 7 -18z m69 3 c-3 -8 -6 -5 -6 6 -1 11 2
17 5 13 3 -3 4 -12 1 -19z m100 -10 c-3 -8 -6 -5 -6 6 -1 11 2 17 5 13 3 -3 4
-12 1 -19z m24 -100 l-11 -33 5 34 c3 18 6 50 7 70 l1 36 4 -37 c2 -20 -1 -51
-6 -70z m-54 -115 c-3 -10 -5 -2 -5 17 0 19 2 27 5 18 2 -10 2 -26 0 -35z
m-47 -73 c0 -5 -6 -10 -14 -10 -8 0 -18 5 -21 10 -3 6 3 10 14 10 12 0 21 -4
21 -10z m-89 -57 c-10 -17 -10 -16 -11 3 0 23 13 41 18 25 2 -6 -1 -18 -7 -28z
m9 -30 c0 -5 -5 -15 -10 -23 -8 -12 -10 -11 -10 8 0 12 5 22 10 22 6 0 10 -3
10 -7z"/>
<path d="M2105 1473 c-39 -6 -58 -22 -52 -45 3 -10 1 -20 -3 -23 -10 -6 -1
-76 11 -89 5 -6 9 -18 9 -27 0 -25 92 -57 230 -80 63 -10 169 -32 235 -48 165
-41 415 -66 415 -43 0 13 74 1 83 -14 4 -8 15 -14 23 -14 8 0 25 -6 37 -14 26
-16 193 -40 286 -40 58 0 66 3 89 29 22 26 24 35 19 91 -6 82 -35 130 -85 143
-20 4 -88 13 -150 19 -91 8 -122 7 -159 -4 -26 -8 -52 -19 -57 -24 -7 -7 -14
-3 -22 12 -10 19 -26 24 -96 34 -47 7 -131 10 -194 7 -111 -5 -180 4 -356 43
-57 13 -68 19 -76 43 -8 24 -18 29 -74 39 -36 7 -69 11 -74 11 -5 -1 -22 -4
-39 -6z m1265 -243 c0 -5 -2 -10 -4 -10 -3 0 -8 5 -11 10 -3 6 -1 10 4 10 6 0
11 -4 11 -10z"/>
<path d="M1705 1400 c3 -19 9 -65 12 -102 5 -61 4 -69 -20 -97 -35 -43 -59
-119 -55 -183 l3 -53 60 -32 c78 -42 90 -42 69 -1 -12 24 -19 75 -25 178 -9
149 -25 270 -41 305 -6 14 -7 10 -3 -15z"/>
<path d="M7516 1177 c3 -10 9 -15 12 -12 3 3 0 11 -7 18 -10 9 -11 8 -5 -6z"/>
<path d="M7702 1060 c0 -14 2 -19 5 -12 2 6 2 18 0 25 -3 6 -5 1 -5 -13z"/>
<path d="M7570 1014 c0 -11 -5 -25 -11 -31 -9 -9 -7 -12 8 -10 15 1 19 7 17
25 -3 30 -14 42 -14 16z"/>
<path d="M7656 994 c-9 -24 -7 -28 9 -14 13 11 15 8 15 -14 0 -14 5 -26 10
-26 13 0 13 13 -2 45 -13 29 -23 32 -32 9z"/>
<path d="M7625 900 c-3 -5 -2 -10 4 -10 5 0 13 5 16 10 3 6 2 10 -4 10 -5 0
-13 -4 -16 -10z"/>
<path d="M7647 883 c-9 -9 -9 -43 1 -43 4 0 7 11 7 25 0 14 0 25 -1 25 0 0 -4
-3 -7 -7z"/>
<path d="M7605 575 c-30 -14 -29 -14 28 -15 55 0 74 11 41 24 -22 8 -34 7 -69
-9z"/>
<path d="M3440 500 c8 -5 35 -12 60 -15 25 -4 104 -17 175 -30 126 -23 266
-41 235 -29 -79 29 -159 46 -295 64 -186 23 -197 24 -175 10z"/>
<path d="M3958 413 c7 -3 16 -2 19 1 4 3 -2 6 -13 5 -11 0 -14 -3 -6 -6z"/>
</g>
</svg>
