<svg width="40" height="40" viewBox="0 0 40 40" fill="none" xmlns="http://www.w3.org/2000/svg">
<path fill-rule="evenodd" clip-rule="evenodd" d="M28.5324 4.34994C28.3787 3.93393 27.888 3.53748 27.0533 3.55526C14.864 3.82726 8.65156 6.35528 5.90578 7.96152C4.89956 8.54997 4.25511 9.7002 4.09956 11.2087C3.84889 13.638 3.55556 17.5847 3.55556 22.7296C3.55556 27.6026 3.81867 31.2062 4.05778 33.4737C4.176 34.5946 4.92889 35.3937 5.936 35.5689C8.296 35.9769 12.2978 36.4444 18.2489 36.4444C24.1458 36.4444 28.1689 35.9849 30.5751 35.5786C31.6284 35.4008 32.416 34.552 32.5218 33.3715C32.616 32.3048 32.7138 30.959 32.7911 29.3395C31.5006 29.4087 30.2066 29.3737 28.9218 29.2346C27.1956 29.0364 25.9396 27.6577 25.84 25.9474C25.7618 24.4191 25.7568 22.8878 25.8249 21.359C25.9227 19.2318 27.8151 17.9305 29.7271 17.9812C30.7745 18.0069 31.8226 17.9885 32.8684 17.926C32.7956 15.558 32.6782 13.526 32.56 11.9136C32.4844 10.8789 31.7476 10.0424 30.7262 9.7802C30.4359 9.70578 30.1351 9.68084 29.8364 9.70642C25.8204 10.0478 19.4391 10.478 12.7582 10.478C12.2867 10.478 11.8345 10.2907 11.5011 9.95728C11.1677 9.62388 10.9804 9.17169 10.9804 8.70019C10.9804 8.22869 11.1677 7.7765 11.5011 7.4431C11.8345 7.1097 12.2867 6.9224 12.7582 6.9224C19.0578 6.9224 25.1067 6.53129 29.0836 6.20239C28.9373 5.57437 28.7533 4.95575 28.5324 4.34994ZM36.4169 17.6425C36.354 15.6447 36.2503 13.6484 36.1058 11.6549C35.9458 9.44864 34.6133 7.67974 32.8124 6.78373C32.5902 5.30816 32.1902 3.99615 31.8684 3.12148C31.0613 0.928574 28.9156 -0.0429888 26.9742 0.00145602C14.3236 0.283236 7.488 2.91703 4.11022 4.89305C1.84356 6.21839 0.796444 8.57841 0.562667 10.8451C0.301333 13.3811 0 17.4505 0 22.7296C0 27.7306 0.270222 31.4586 0.522667 33.8471C0.796445 36.4471 2.65689 38.6098 5.32978 39.072C7.90578 39.5182 12.112 40 18.2489 40C24.3307 40 28.5529 39.5262 31.1671 39.0844C33.9262 38.6195 35.8249 36.3617 36.0631 33.6853C36.1724 32.4515 36.2853 30.8719 36.368 28.9555C36.6021 28.9164 36.8335 28.8755 37.0622 28.8328C38.6329 28.5368 39.8267 27.2728 39.9289 25.6354C39.9707 24.9777 40 24.1439 40 23.1065C40 22.2719 39.9813 21.5412 39.952 20.9136C39.8622 18.9474 38.2249 17.6514 36.4169 17.6425ZM31.1111 21.5518C31.5826 21.5518 32.0348 21.7392 32.3682 22.0726C32.7016 22.406 32.8889 22.8581 32.8889 23.3296V24.2185C32.8889 24.69 32.7016 25.1422 32.3682 25.4756C32.0348 25.809 31.5826 25.9963 31.1111 25.9963C30.6396 25.9963 30.1874 25.809 29.854 25.4756C29.5206 25.1422 29.3333 24.69 29.3333 24.2185V23.3296C29.3333 22.8581 29.5206 22.406 29.854 22.0726C30.1874 21.7392 30.6396 21.5518 31.1111 21.5518Z" fill="#FA9D3E"/>
</svg>
