<svg width="64" height="61" viewBox="0 0 64 61" fill="none" xmlns="http://www.w3.org/2000/svg">
<g opacity="0.5">
<rect width="64" height="61" rx="2" fill="#E6E6E6"/>
<path d="M31.2523 24.2834L20.2852 34.4666C20.1021 34.6365 20 34.8623 20 35.097C20 35.3318 20.1021 35.5575 20.2852 35.7274L20.2976 35.7384C20.3864 35.821 20.4932 35.8869 20.6116 35.9318C20.73 35.9768 20.8575 36 20.9864 36C21.1153 36 21.2428 35.9768 21.3612 35.9318C21.4796 35.8869 21.5865 35.821 21.6752 35.7384L32.0021 26.149L42.3248 35.7384C42.4135 35.821 42.5204 35.8869 42.6388 35.9318C42.7572 35.9768 42.8847 36 43.0136 36C43.1425 36 43.27 35.9768 43.3884 35.9318C43.5068 35.8869 43.6136 35.821 43.7024 35.7384L43.7148 35.7274C43.8979 35.5575 44 35.3318 44 35.097C44 34.8623 43.8979 34.6365 43.7148 34.4666L32.7477 24.2834C32.6512 24.1938 32.5352 24.1226 32.4067 24.0738C32.2782 24.0251 32.1398 24 32 24C31.8602 24 31.7218 24.0251 31.5933 24.0738C31.4648 24.1226 31.3488 24.1938 31.2523 24.2834Z" fill="#808080" fill-opacity="0.4"/>
</g>
</svg>
