<svg width="40" height="42" viewBox="0 0 40 42" fill="none" xmlns="http://www.w3.org/2000/svg">
<path d="M34.7532 20.3643C35.5736 20.9248 36.3051 21.5605 36.9478 22.2715C37.5905 22.9824 38.1443 23.7617 38.6093 24.6094C39.0743 25.457 39.4162 26.3525 39.6351 27.2959C39.854 28.2393 39.9772 29.2031 40.0047 30.1875C40.005 31.8145 39.6976 33.3457 39.0826 34.7813C38.4675 36.2168 37.6201 37.4678 36.5402 38.5342C35.4603 39.6006 34.2094 40.4414 32.7876 41.0566C31.3659 41.6719 29.8347 41.9863 28.194 42C26.9499 42 25.7467 41.8154 24.5846 41.4463C23.4224 41.0771 22.3559 40.5439 21.3851 39.8467C20.4143 39.1494 19.5528 38.3154 18.8007 37.3447C18.0486 36.374 17.4674 35.3008 17.0571 34.125H0.630309L0.625408 2.625H5.87541L5.875 0L8.5 0L8.50041 2.625L26.8754 2.625L26.875 0L29.5 0L29.5004 2.625H34.7504L34.7532 20.3643ZM3.25082 5.25L3.25163 10.5H32.1266L32.1258 5.25H29.5008L29.5012 7.875H26.8762L26.8758 5.25L8.50082 5.25L8.50123 7.875H5.87623L5.87582 5.25H3.25082ZM16.4414 31.5C16.4003 31.0762 16.3798 30.6387 16.3797 30.1875C16.3795 29.0117 16.5434 27.8701 16.8714 26.7627C17.1993 25.6553 17.6982 24.6094 18.3679 23.625H16.3787L16.3783 21H19.0033L19.0035 22.7637C19.564 22.0664 20.186 21.4512 20.8695 20.918C21.553 20.3848 22.2912 19.9268 23.0841 19.5439C23.877 19.1611 24.7041 18.874 25.5654 18.6826C26.4267 18.4912 27.3017 18.3887 28.1904 18.375C29.5575 18.375 30.8701 18.6006 32.128 19.0518L32.127 13.125H3.25204L3.2549 31.5H16.4414ZM28.1936 39.375C29.4651 39.375 30.6545 39.1357 31.7619 38.6572C32.8692 38.1787 33.8398 37.5225 34.6737 36.6885C35.5075 35.8545 36.1636 34.8838 36.642 33.7764C37.1203 32.6689 37.3662 31.4727 37.3797 30.1875C37.3795 28.916 37.1401 27.7266 36.6614 26.6191C36.1827 25.5117 35.5263 24.541 34.6922 23.707C33.8581 22.873 32.8872 22.2168 31.7798 21.7383C30.6723 21.2598 29.4759 21.0137 28.1908 21C26.9193 21 25.7299 21.2393 24.6225 21.7178C23.5152 22.1963 22.5446 22.8525 21.7107 23.6865C20.8769 24.5205 20.2208 25.4912 19.7424 26.5986C19.2641 27.7061 19.0182 28.9023 19.0047 30.1875C19.0049 31.459 19.2443 32.6484 19.723 33.7559C20.2017 34.8633 20.8581 35.834 21.6922 36.668C22.5263 37.502 23.4971 38.1582 24.6046 38.6367C25.7121 39.1152 26.9085 39.3613 28.1936 39.375ZM29.5045 28.875H33.442L33.4424 31.5H26.8799L26.8787 23.625H29.5037L29.5045 28.875ZM5.87827 21H8.50327L8.50368 23.625H5.87868L5.87827 21ZM11.1283 21H13.7533L13.7537 23.625H11.1287L11.1283 21ZM11.1275 15.75H13.7525L13.7529 18.375H11.1279L11.1275 15.75ZM5.87908 26.25H8.50408L8.50449 28.875H5.87949L5.87908 26.25ZM11.1291 26.25H13.7541L13.7545 28.875H11.1295L11.1291 26.25ZM19.0029 18.375H16.3779L16.3775 15.75H19.0025L19.0029 18.375ZM24.2529 18.375H21.6279L21.6275 15.75H24.2525L24.2529 18.375ZM29.5029 18.375H26.8779L26.8775 15.75H29.5025L29.5029 18.375Z" fill="white"/>
</svg>
